<?xml version="1.0" encoding="utf-8"?>
<!-- Generator: Adobe Illustrator 22.1.0, SVG Export Plug-In . SVG Version: 6.00 Build 0)  -->
<svg version="1.1" id="Layer_1" xmlns="http://www.w3.org/2000/svg" xmlns:xlink="http://www.w3.org/1999/xlink" x="0px" y="0px"
	 viewBox="0 0 26.7 28.4" style="enable-background:new 0 0 26.7 28.4;" xml:space="preserve">
<style type="text/css">
	.st0{fill:#37B14A;}
</style>
<path class="st0" d="M13.4,2.2c-6.7,0-12,5.3-12,12s5.3,12,12,12s12-5.3,12-12S20,2.2,13.4,2.2z M20.3,10.4L20.3,10.4l-8.7,9.1
	c-0.1,0.1-0.2,0.2-0.4,0.2c-0.2,0-0.3-0.1-0.4-0.2l-4.3-4.6l-0.1-0.1c-0.1-0.1-0.2-0.3-0.2-0.4c0-0.1,0.1-0.3,0.2-0.4l0.8-0.8
	C7.4,13,7.7,13,8,13.3L8,13.3l3,3.2c0.1,0.1,0.3,0.1,0.4,0L18.7,9h0.1c0.2-0.2,0.5-0.2,0.8,0l0.8,0.8C20.5,9.9,20.5,10.2,20.3,10.4z
	"/>
</svg>
