<svg xmlns="http://www.w3.org/2000/svg" xmlns:xlink="http://www.w3.org/1999/xlink" width="283" height="234" viewBox="0 0 283 234">
  <defs>
    <clipPath id="clip-cloud">
      <rect width="283" height="234"/>
    </clipPath>
  </defs>
  <g id="cloud" clip-path="url(#clip-cloud)">
    <rect width="283" height="234" fill="rgba(255,255,255,0)"/>
    <g id="upload" transform="translate(32.741 16.347)" opacity="0.37">
      <g id="Group_3280" data-name="Group 3280">
        <path id="Path_4277" data-name="Path 4277" d="M177.4,71.061A63.186,63.186,0,0,0,60.331,50.068a36.2,36.2,0,0,0-6.639-.628A34.63,34.63,0,0,0,19.109,84.024a37.8,37.8,0,0,0,.718,7.177A48.125,48.125,0,0,0,0,130a51.451,51.451,0,0,0,13.053,34.046c8.657,9.779,20.1,15.565,32.3,16.238H84.284a6.056,6.056,0,0,0,0-12.111h-38.4c-18.346-1.121-33.776-18.57-33.776-38.217a35.952,35.952,0,0,1,17.808-30.95,6.1,6.1,0,0,0,2.646-7.356,21.974,21.974,0,0,1-1.346-7.715A22.513,22.513,0,0,1,53.692,61.462a22.089,22.089,0,0,1,7.67,1.346,6.084,6.084,0,0,0,7.581-3.1,51.071,51.071,0,0,1,97.023,16.821,6.049,6.049,0,0,0,5.024,5.383c19.961,3.409,35.032,21.845,35.032,42.882,0,22.293-17.539,41.671-39.159,43.331H133.8a6.056,6.056,0,1,0,0,12.111h33.732a53.665,53.665,0,0,0,35.974-17.763A55.86,55.86,0,0,0,218.133,124.8C218.089,99.634,200.909,77.251,177.4,71.061Z" transform="translate(0 -18.4)" fill="#23232a"/>
        <path id="Path_4278" data-name="Path 4278" d="M232.674,227.834a6.037,6.037,0,0,0,0-8.568L200.6,187.194a6.128,6.128,0,0,0-4.261-1.794,5.94,5.94,0,0,0-4.261,1.794l-32.072,32.072a6.078,6.078,0,0,0,4.261,10.362,5.909,5.909,0,0,0,4.261-1.794l21.755-21.755v99.984a6.056,6.056,0,0,0,12.111,0V206.078l21.755,21.755A5.984,5.984,0,0,0,232.674,227.834Z" transform="translate(-87.252 -110.491)" fill="#23232a"/>
      </g>
    </g>
  </g>
</svg>
