<svg xmlns="http://www.w3.org/2000/svg" width="47.547" height="48.34" viewBox="0 0 47.547 48.34"><defs><style>.a{fill:#9626cc;}</style></defs><g transform="translate(0 0)"><path class="a" d="M29.736,49.434H28.151V41.668a.792.792,0,1,0-1.585,0v7.766H5.962V33.585h6.593a.792.792,0,0,0,0-1.585H5.17a.792.792,0,0,0-.792.792V49.434H2.792A.792.792,0,0,0,2,50.227v1.585a3.962,3.962,0,0,0,3.962,3.962h20.6a3.962,3.962,0,0,0,3.962-3.962V50.227A.792.792,0,0,0,29.736,49.434Zm-.792,2.377a2.377,2.377,0,0,1-2.377,2.377H24.981V53.4a.792.792,0,1,0-1.585,0v.792H9.132V53.4a.792.792,0,1,0-1.585,0v.792H5.962a2.377,2.377,0,0,1-2.377-2.377v-.792H28.943Z" transform="translate(-2 -7.434)"/><path class="a" d="M52.962,7.585h1.585a.792.792,0,0,0,0-1.585H52.962a2.377,2.377,0,0,0-2.377,2.377V9.17h-.792a.792.792,0,0,0,0,1.585h.792v2.377a.792.792,0,1,0,1.585,0V10.755h.792a.792.792,0,0,0,0-1.585H52.17V8.377A.792.792,0,0,1,52.962,7.585Z" transform="translate(-11.755 -2.038)"/><path class="a" d="M55.887,2H46.377A2.377,2.377,0,0,0,44,4.377V5.962a.792.792,0,1,0,1.585,0V4.377a.792.792,0,0,1,.792-.792h9.509a.792.792,0,0,1,.792.792v9.51a.792.792,0,0,1-.792.792H46.377a.792.792,0,0,1-.792-.792V9.132a.792.792,0,1,0-1.585,0v4.755a2.377,2.377,0,0,0,2.377,2.377h9.509a2.377,2.377,0,0,0,2.377-2.377V4.377A2.377,2.377,0,0,0,55.887,2Z" transform="translate(-10.717 -1.208)"/><path class="a" d="M49,41.17A3.17,3.17,0,1,0,52.17,38,3.17,3.17,0,0,0,49,41.17Zm4.755,0a1.585,1.585,0,1,1-1.585-1.585A1.585,1.585,0,0,1,53.755,41.17Z" transform="translate(-11.755 -8.679)"/><path class="a" d="M55.887,33H46.377A2.377,2.377,0,0,0,44,35.377v9.51a2.377,2.377,0,0,0,2.377,2.377h9.509a2.377,2.377,0,0,0,2.377-2.377V43.3a.792.792,0,1,0-1.585,0v1.585a.792.792,0,0,1-.792.792H46.377a.792.792,0,0,1-.792-.792v-9.51a.792.792,0,0,1,.792-.792h9.509a.792.792,0,0,1,.792.792v4.755a.792.792,0,1,0,1.585,0V35.377A2.377,2.377,0,0,0,55.887,33Z" transform="translate(-10.717 -7.641)"/><path class="a" d="M24.372,12.221a.788.788,0,0,0,.777.032L29.9,9.876a.792.792,0,0,0,0-1.411L25.149,6.088A.792.792,0,0,0,24,6.793v4.755A.792.792,0,0,0,24.372,12.221Zm1.212-4.145L27.772,9.17l-2.187,1.094Z" transform="translate(-6.566 -2.038)"/><path class="a" d="M25.132,15.264A7.132,7.132,0,1,0,18,8.132,7.132,7.132,0,0,0,25.132,15.264Zm0-12.679a5.547,5.547,0,1,1-5.547,5.547A5.547,5.547,0,0,1,25.132,2.585Z" transform="translate(-5.321 -1)"/><path class="a" d="M36.792,21.755a.792.792,0,0,0,.634-.317l2.377-3.17a.792.792,0,1,0-1.268-.951l-2.377,3.17a.792.792,0,0,0,.634,1.268Z" transform="translate(-9.057 -4.321)"/><path class="a" d="M39.158,25.645a.792.792,0,0,0,1.109.158l3.17-2.377a.792.792,0,0,0-.951-1.268l-3.17,2.377a.792.792,0,0,0-.158,1.109Z" transform="translate(-9.679 -5.358)"/><path class="a" d="M47.525,28.629A.792.792,0,0,0,46.574,28l-3.962.792a.8.8,0,0,0,.158,1.585h.158l3.962-.792a.792.792,0,0,0,.634-.951Z" transform="translate(-10.28 -6.599)"/><path class="a" d="M2.792,25.264H12.3a.792.792,0,0,0,.792-.792V11.792A.792.792,0,0,0,12.3,11H2.792A.792.792,0,0,0,2,11.792V24.472A.792.792,0,0,0,2.792,25.264Zm.792-12.679h7.924V23.679H3.585Z" transform="translate(-2 -3.075)"/><path class="a" d="M10.377,15H8.792a.792.792,0,0,0,0,1.585h1.585a.792.792,0,0,0,0-1.585Z" transform="translate(-3.245 -3.906)"/><path class="a" d="M9.962,19H6.792a.792.792,0,0,0,0,1.585h3.17a.792.792,0,0,0,0-1.585Z" transform="translate(-2.83 -4.736)"/><path class="a" d="M9.962,23H6.792a.792.792,0,0,0,0,1.585h3.17a.792.792,0,0,0,0-1.585Z" transform="translate(-2.83 -5.566)"/><path class="a" d="M30.5,27.518a.8.8,0,1,0-1.379.792l3.495,6.046L19.935,39.111h-.119L17.756,40.3l-1.371.792a1.582,1.582,0,0,1-2.163-.578l-1.585-2.742a1.585,1.585,0,0,1,.594-2.092l2.742-1.585,1.981,3.431a.8.8,0,1,0,1.379-.792L17.288,33.2,27.233,25l.325.563a.8.8,0,0,0,1.379-.792L28.145,23.4a.8.8,0,0,0-1.2-.214L15.854,32.328l-3.376,1.949a3.17,3.17,0,0,0-1.458,3.59l-.792.452a2.376,2.376,0,0,0,1.189,4.438A2.425,2.425,0,0,0,12.6,42.44l.792-.452a3.075,3.075,0,0,0,1.387.824,3,3,0,0,0,.832.111A3.122,3.122,0,0,0,17.2,42.5l.689-.4,1.585,2.75a2.375,2.375,0,1,0,4.113-2.377l-1.442-2.512L34.033,35.5a.795.795,0,0,0,.412-1.133ZM11.781,41.061a.792.792,0,1,1-.792-1.371l.689-.4.792,1.371ZM22.209,43.28a.792.792,0,0,1-1.371.792l-1.585-2.75,1.315-.753h.063Z" transform="translate(-3.46 -5.566)"/></g></svg>