<svg xmlns="http://www.w3.org/2000/svg" width="49.551" height="50.378" viewBox="0 0 49.551 50.378"><defs><style>.a{fill:#9626cc;}</style></defs><g transform="translate(0 0)"><path class="a" d="M30.905,50.169H29.253V42.076a.826.826,0,1,0-1.652,0v8.094H6.129V33.652H13A.826.826,0,0,0,13,32H5.3a.826.826,0,0,0-.826.826V50.169H2.826A.826.826,0,0,0,2,50.995v1.652a4.129,4.129,0,0,0,4.129,4.129H27.6a4.129,4.129,0,0,0,4.129-4.129V50.995A.826.826,0,0,0,30.905,50.169Zm-.826,2.478A2.478,2.478,0,0,1,27.6,55.124H25.95V54.3a.826.826,0,1,0-1.652,0v.826H9.433V54.3a.826.826,0,1,0-1.652,0v.826H6.129a2.478,2.478,0,0,1-2.478-2.478v-.826H30.079Z" transform="translate(-2 -6.398)"/><path class="a" d="M53.129,7.652h1.652a.826.826,0,0,0,0-1.652H53.129a2.478,2.478,0,0,0-2.478,2.478V9.3h-.826a.826.826,0,0,0,0,1.652h.826v2.478a.826.826,0,1,0,1.652,0V10.955h.826a.826.826,0,0,0,0-1.652H52.3V8.478A.826.826,0,0,1,53.129,7.652Z" transform="translate(-10.185 -1.871)"/><path class="a" d="M56.388,2h-9.91A2.478,2.478,0,0,0,44,4.478V6.129a.826.826,0,1,0,1.652,0V4.478a.826.826,0,0,1,.826-.826h9.91a.826.826,0,0,1,.826.826v9.91a.826.826,0,0,1-.826.826h-9.91a.826.826,0,0,1-.826-.826V9.433a.826.826,0,1,0-1.652,0v4.955a2.478,2.478,0,0,0,2.478,2.478h9.91a2.478,2.478,0,0,0,2.478-2.478V4.478A2.478,2.478,0,0,0,56.388,2Z" transform="translate(-9.314 -1.174)"/><path class="a" d="M49,41.3A3.3,3.3,0,1,0,52.3,38,3.3,3.3,0,0,0,49,41.3Zm4.955,0A1.652,1.652,0,1,1,52.3,39.652,1.652,1.652,0,0,1,53.955,41.3Z" transform="translate(-10.185 -7.443)"/><path class="a" d="M56.388,33h-9.91A2.478,2.478,0,0,0,44,35.478v9.91a2.478,2.478,0,0,0,2.478,2.478h9.91a2.478,2.478,0,0,0,2.478-2.478V43.736a.826.826,0,1,0-1.652,0v1.652a.826.826,0,0,1-.826.826h-9.91a.826.826,0,0,1-.826-.826v-9.91a.826.826,0,0,1,.826-.826h9.91a.826.826,0,0,1,.826.826v4.955a.826.826,0,1,0,1.652,0V35.478A2.478,2.478,0,0,0,56.388,33Z" transform="translate(-9.314 -6.572)"/><path class="a" d="M24.388,12.484a.821.821,0,0,0,.809.033l4.955-2.478a.826.826,0,0,0,0-1.47L25.2,6.091a.826.826,0,0,0-1.2.735v4.955A.826.826,0,0,0,24.388,12.484Zm1.264-4.319L27.931,9.3l-2.279,1.14Z" transform="translate(-5.831 -1.871)"/><path class="a" d="M25.433,15.866A7.433,7.433,0,1,0,18,8.433,7.433,7.433,0,0,0,25.433,15.866Zm0-13.214a5.781,5.781,0,1,1-5.781,5.781A5.781,5.781,0,0,1,25.433,2.652Z" transform="translate(-4.786 -1)"/><path class="a" d="M36.826,21.955a.826.826,0,0,0,.661-.33l2.478-3.3a.826.826,0,1,0-1.321-.991l-2.478,3.3a.826.826,0,0,0,.661,1.321Z" transform="translate(-7.921 -3.786)"/><path class="a" d="M39.165,25.8a.826.826,0,0,0,1.156.165l3.3-2.478a.826.826,0,0,0-.991-1.321l-3.3,2.478a.826.826,0,0,0-.165,1.156Z" transform="translate(-8.443 -4.657)"/><path class="a" d="M47.763,28.657A.826.826,0,0,0,46.772,28l-4.129.826a.83.83,0,0,0,.165,1.652h.165l4.129-.826a.826.826,0,0,0,.661-.991Z" transform="translate(-8.947 -5.697)"/><path class="a" d="M2.826,25.866h9.91a.826.826,0,0,0,.826-.826V11.826A.826.826,0,0,0,12.736,11H2.826A.826.826,0,0,0,2,11.826V25.04A.826.826,0,0,0,2.826,25.866Zm.826-13.214H11.91V24.214H3.652Z" transform="translate(-2 -2.741)"/><path class="a" d="M10.478,15H8.826a.826.826,0,0,0,0,1.652h1.652a.826.826,0,0,0,0-1.652Z" transform="translate(-3.045 -3.438)"/><path class="a" d="M10.129,19h-3.3a.826.826,0,0,0,0,1.652h3.3a.826.826,0,0,0,0-1.652Z" transform="translate(-2.697 -4.134)"/><path class="a" d="M10.129,23h-3.3a.826.826,0,0,0,0,1.652h3.3a.826.826,0,0,0,0-1.652Z" transform="translate(-2.697 -4.831)"/><path class="a" d="M31.4,27.708a.829.829,0,1,0-1.437.826l3.642,6.3L20.394,39.79h-.124l-2.147,1.239-1.429.826a1.649,1.649,0,0,1-2.255-.6l-1.652-2.857a1.652,1.652,0,0,1,.619-2.18l2.857-1.652,2.065,3.576a.829.829,0,1,0,1.437-.826l-2.131-3.683L28,25.082l.339.586a.829.829,0,0,0,1.437-.826l-.826-1.429A.837.837,0,0,0,27.7,23.19L16.141,32.721l-3.518,2.032a3.3,3.3,0,0,0-1.52,3.741l-.826.471a2.476,2.476,0,0,0,1.239,4.625,2.527,2.527,0,0,0,1.239-.33l.826-.471a3.2,3.2,0,0,0,1.445.859,3.13,3.13,0,0,0,.867.116,3.254,3.254,0,0,0,1.652-.446l.719-.413,1.652,2.866A2.475,2.475,0,1,0,24.2,43.292l-1.5-2.618,12.388-4.65a.828.828,0,0,0,.429-1.181ZM11.9,41.822a.825.825,0,1,1-.826-1.429l.718-.413.826,1.429Zm10.868,2.312a.825.825,0,0,1-1.429.826l-1.652-2.866,1.371-.785h.066Z" transform="translate(-3.225 -4.831)"/></g></svg>