<svg xmlns="http://www.w3.org/2000/svg" width="95.81" height="95.81" viewBox="0 0 95.81 95.81"><defs><style>.a{fill:#5ee2a4;}</style></defs><path class="a" d="M96.373,48.468A47.905,47.905,0,1,1,48.468.563,47.9,47.9,0,0,1,96.373,48.468ZM42.926,73.833,78.469,38.29a3.091,3.091,0,0,0,0-4.371L74.1,29.549a3.091,3.091,0,0,0-4.371,0L40.741,58.535,27.208,45a3.091,3.091,0,0,0-4.371,0l-4.371,4.371a3.091,3.091,0,0,0,0,4.371L38.555,73.833a3.091,3.091,0,0,0,4.371,0Z" transform="translate(-0.563 -0.563)"/></svg>