<svg xmlns="http://www.w3.org/2000/svg" width="51.953" height="51.953" viewBox="0 0 51.953 51.953"><defs><style>.a{fill:#9626cc;}</style></defs><path class="a" d="M48.764,7.7H24.678A12.564,12.564,0,1,0,7.7,24.678v14.03a4.2,4.2,0,0,0,4.19,4.19h11.7A4.783,4.783,0,0,1,21.67,46.25H19.435a4.2,4.2,0,0,0-4.19,4.19,2.517,2.517,0,0,0,2.514,2.514H42.9a2.517,2.517,0,0,0,2.514-2.514,4.2,4.2,0,0,0-4.19-4.19H38.988A4.783,4.783,0,0,1,37.064,42.9h11.7a4.2,4.2,0,0,0,4.19-4.19V11.893A4.2,4.2,0,0,0,48.764,7.7ZM12.731,26.1c.278.018.555.043.838.043A12.545,12.545,0,0,0,23.6,21.111h5.889v-6.7H26.1c.018-.278.043-.555.043-.838s-.024-.56-.043-.838h21.83V34.518H12.731Zm5.54-18.413A7.572,7.572,0,0,0,17.21,6.97l1.285-3.1a10.969,10.969,0,0,1,2.153,1.44ZM15.662,6.329a7.475,7.475,0,0,0-1.254-.252V2.719a10.818,10.818,0,0,1,2.542.5Zm-2.93-.252A7.505,7.505,0,0,0,8.868,7.683L6.491,5.306a10.831,10.831,0,0,1,6.24-2.588ZM13.569,7.7A5.866,5.866,0,1,1,7.7,13.569,5.873,5.873,0,0,1,13.569,7.7Zm8.263-1.213a10.907,10.907,0,0,1,1.44,2.153l-3.1,1.285a7.646,7.646,0,0,0-.713-1.061Zm2.588,6.24H21.062a7.475,7.475,0,0,0-.252-1.254l3.11-1.288A10.775,10.775,0,0,1,24.42,12.731Zm-3.359,1.676H24.42a10.818,10.818,0,0,1-.5,2.542l-3.11-1.288A7.475,7.475,0,0,0,21.062,14.407Zm4.824,1.676h1.929v3.352H24.678A12.485,12.485,0,0,0,25.886,16.083ZM2.676,13.569a10.833,10.833,0,0,1,2.63-7.078L7.683,8.868A7.536,7.536,0,1,0,20.17,17.21l3.1,1.285a10.886,10.886,0,0,1-20.6-4.926Zm41.06,36.87a.838.838,0,0,1-.838.838H17.759a.838.838,0,0,1-.838-.838,2.517,2.517,0,0,1,2.514-2.514H41.222A2.517,2.517,0,0,1,43.736,50.44Zm-7.1-4.19H24.02A6.45,6.45,0,0,0,25.27,42.9H35.388a6.456,6.456,0,0,0,1.249,3.352Zm14.64-7.542a2.517,2.517,0,0,1-2.514,2.514H11.893A2.517,2.517,0,0,1,9.38,38.708v-13.3a12.394,12.394,0,0,0,1.676.48v8.633a1.678,1.678,0,0,0,1.676,1.676H47.926A1.678,1.678,0,0,0,49.6,34.518V12.731a1.678,1.678,0,0,0-1.676-1.676H25.886a12.4,12.4,0,0,0-.48-1.676H48.764a2.517,2.517,0,0,1,2.514,2.514Z" transform="translate(-1 -1)"/></svg>