<svg xmlns="http://www.w3.org/2000/svg" xmlns:xlink="http://www.w3.org/1999/xlink" width="30" height="30" viewBox="0 0 30 30">
  <defs>
    <clipPath id="clip-save_icon">
      <rect width="30" height="30"/>
    </clipPath>
  </defs>
  <g id="save_icon" data-name="save icon" clip-path="url(#clip-save_icon)">
    <rect width="30" height="30" fill="rgba(228,228,228,0)"/>
    <g id="interface_3_" data-name="interface (3)" transform="translate(4.438 4.437)">
      <g id="Group_6480" data-name="Group 6480">
        <g id="Group_6479" data-name="Group 6479">
          <path id="Path_10342" data-name="Path 10342" d="M20.9,5.122l-4.9-4.9h0A.776.776,0,0,0,15.459,0H.773A.773.773,0,0,0,0,.773V20.354a.773.773,0,0,0,.773.773H20.354a.773.773,0,0,0,.773-.773V5.668A.773.773,0,0,0,20.9,5.122ZM6.441,1.546h8.245V6.119H6.441ZM16.524,19.581H4.6v-6.5H16.524Zm3.057,0H18.07V12.3a.773.773,0,0,0-.773-.773H3.83a.773.773,0,0,0-.773.773v7.276H1.546V1.546H4.9V6.892a.773.773,0,0,0,.773.773h9.791a.773.773,0,0,0,.773-.773V2.639l3.349,3.349Z" fill="#00adee"/>
        </g>
      </g>
      <g id="Group_6482" data-name="Group 6482" transform="translate(11.999 2.27)">
        <g id="Group_6481" data-name="Group 6481">
          <path id="Path_10343" data-name="Path 10343" d="M291.555,55.015a.773.773,0,0,0-.773.773v1.579a.773.773,0,1,0,1.546,0V55.788A.773.773,0,0,0,291.555,55.015Z" transform="translate(-290.782 -55.015)" fill="#00adee"/>
        </g>
      </g>
    </g>
  </g>
</svg>
