<svg xmlns="http://www.w3.org/2000/svg" width="46.502" height="46.501" viewBox="0 0 46.502 46.501"><defs><style>.a{fill:#9626cc;}</style></defs><path class="a" d="M42.751,12h-7.5a4.5,4.5,0,0,0-9,0H16.486A7.5,7.5,0,1,0,4.514,12H3.75A3.754,3.754,0,0,0,0,15.751v22.5A3.754,3.754,0,0,0,3.75,42H12v3H9v1.5H37.5V45h-3V42h8.25a3.754,3.754,0,0,0,3.75-3.75v-22.5A3.754,3.754,0,0,0,42.751,12Zm-12-3a3,3,0,1,1-3,3A3,3,0,0,1,30.751,9Zm-4.238,4.5a4.5,4.5,0,0,0,.933,1.544L21.19,21.927a5.941,5.941,0,0,0-5.075-.618l-2.537-6.977A7.493,7.493,0,0,0,15,13.486V13.5ZM22.5,27A4.5,4.5,0,1,1,18,22.5,4.5,4.5,0,0,1,22.5,27ZM4.5,7.5a6,6,0,1,1,6,6A6.007,6.007,0,0,1,4.5,7.5ZM33,45H13.5V42H33Zm12-6.75a2.253,2.253,0,0,1-2.25,2.25h-39a2.253,2.253,0,0,1-2.25-2.25V37.5H45ZM45,36H1.5V15.751A2.253,2.253,0,0,1,3.75,13.5H6v-.014a7.4,7.4,0,0,0,6.155,1.324l2.6,7.151a6,6,0,1,0,7.595.92l6.283-6.911a4.473,4.473,0,0,0,4.787-.354l4.479,3.92A2.959,2.959,0,0,0,37.5,21a3.028,3.028,0,1,0,1.439-2.55l-4.475-3.915a4.5,4.5,0,0,0,.523-1.035h7.763A2.253,2.253,0,0,1,45,15.751ZM39,21a1.5,1.5,0,1,1,1.5,1.5A1.5,1.5,0,0,1,39,21Z"/><rect class="a" width="1.058" height="1.058" transform="translate(42.517 33.299)"/><rect class="a" width="5.288" height="1.058" transform="translate(35.819 33.299)"/><rect class="a" width="7.756" height="1.058" transform="translate(35.819 30.165)"/></svg>