<?xml version="1.0" encoding="utf-8"?>
<!-- Generator: Adobe Illustrator 22.1.0, SVG Export Plug-In . SVG Version: 6.00 Build 0)  -->
<svg version="1.1" id="Layer_1" xmlns="http://www.w3.org/2000/svg" xmlns:xlink="http://www.w3.org/1999/xlink" x="0px" y="0px"
	 viewBox="0 0 26.7 28.4" style="enable-background:new 0 0 26.7 28.4;" xml:space="preserve">
<style type="text/css">
	.st0{fill:#BE1E2D;}
</style>
<g>
	<path class="st0" d="M21.9,5.7C17.2,1,9.6,1,4.9,5.7s-4.7,12.3,0,17s12.3,4.7,17,0C26.5,18,26.5,10.4,21.9,5.7z M18.1,18.9
		c-0.4,0.4-0.9,0.4-1.3,0l-3.4-3.4l-3.6,3.6c-0.4,0.4-0.9,0.4-1.3,0s-0.4-0.9,0-1.3l3.6-3.6l-3.4-3.4c-0.4-0.4-0.4-0.9,0-1.3
		c0.4-0.4,0.9-0.4,1.3,0l3.4,3.4l3.3-3.3c0.4-0.4,0.9-0.4,1.3,0c0.4,0.4,0.4,0.9,0,1.3l-3.3,3.3l3.4,3.4
		C18.5,18,18.5,18.6,18.1,18.9z"/>
</g>
</svg>
