<svg xmlns="http://www.w3.org/2000/svg" width="14.118" height="13.105" viewBox="0 0 14.118 13.105">
  <g id="upload_1_" data-name="upload (1)" transform="translate(0.15 0.15)">
    <g id="Group_4941" data-name="Group 4941">
      <path id="Path_4979" data-name="Path 4979" d="M13.421,228.209a.394.394,0,0,0-.4.4v3.6a1.776,1.776,0,0,1-1.774,1.774H2.566a1.776,1.776,0,0,1-1.774-1.774v-3.66a.4.4,0,0,0-.792,0v3.66a2.569,2.569,0,0,0,2.566,2.566h8.686a2.569,2.569,0,0,0,2.566-2.566v-3.6A.4.4,0,0,0,13.421,228.209Z" transform="translate(0 -221.966)" fill="#00adee" stroke="#00adee" stroke-width="0.3"/>
      <path id="Path_4980" data-name="Path 4980" d="M137,20.443,138.84,18.6v8.032a.4.4,0,1,0,.792,0V18.6l1.842,1.842a.4.4,0,0,0,.279.117.382.382,0,0,0,.279-.117.4.4,0,0,0,0-.56l-2.516-2.516a.4.4,0,0,0-.279-.117.383.383,0,0,0-.279.117l-2.516,2.516a.4.4,0,1,0,.557.56Z" transform="translate(-132.327 -17.25)" fill="#00adee" stroke="#00adee" stroke-width="0.3"/>
    </g>
  </g>
</svg>
