<?xml version="1.0" encoding="utf-8"?>
<!-- Generator: Adobe Illustrator 22.1.0, SVG Export Plug-In . SVG Version: 6.00 Build 0)  -->
<svg version="1.1" id="Layer_1" xmlns="http://www.w3.org/2000/svg" xmlns:xlink="http://www.w3.org/1999/xlink" x="0px" y="0px"
	 viewBox="0 0 70.7 70.7" style="enable-background:new 0 0 70.7 70.7;" xml:space="preserve">
<style type="text/css">
	.st0{fill:#CCCCCC;}
	.st1{fill:#29ABE2;}
</style>
<g>
	<path class="st1" d="M50.4,21.6v-10c0-3.4-2.8-6.2-6.2-6.2H16.6c-0.3,0-0.6,0.1-0.9,0.4l-10,10c-0.2,0.2-0.4,0.6-0.4,0.9v42.5
		c0,3.5,2.8,6.2,6.2,6.2h32.5c3.5,0,6.2-2.8,6.2-6.2h-2.5c0,2.1-1.7,3.8-3.8,3.8H11.6c-2.1,0-3.7-1.7-3.7-3.8v-42l9.3-9.3h27
		c2.1,0,3.8,1.7,3.8,3.8v10L50.4,21.6L50.4,21.6z"/>
	<path class="st1" d="M15.4,6.6v7.5c0,0.7-0.6,1.3-1.3,1.3h-2.5v2.5h2.5c2.1,0,3.8-1.7,3.8-3.8V6.6H15.4z"/>
	<path class="st1" d="M64.1,31.6H41.6v2.5h21.2v20h-35v-20h8.8c0.3,0,0.6-0.1,0.9-0.4l7.9-7.9l2.9,2.9c0.5,0.5,1.3,0.5,1.8,0
		l10.4-10.4v3.2h2.5v-6.3c0-0.3-0.1-0.6-0.4-0.9c-0.5-0.5-1.3-0.5-1.8,0L49.1,26.1l-2.9-2.9c-0.5-0.5-1.3-0.5-1.8,0l-8.4,8.4h-9.5
		c-0.7,0-1.3,0.6-1.3,1.3v22.5c0,0.7,0.6,1.3,1.3,1.3h37.5c0.7,0,1.3-0.6,1.3-1.3V32.9C65.4,32.2,64.8,31.6,64.1,31.6z"/>
	<path class="st1" d="M46.6,37.9h-2.5c-2.1,0-3.8,1.7-3.8,3.8c0,2.1,1.7,3.8,3.8,3.8h2.5v-2.5h-2.5c-0.7,0-1.3-0.6-1.3-1.3
		s0.6-1.3,1.3-1.3h2.5c0.7,0,1.3,0.6,1.3,1.3h2.5C50.4,39.5,48.7,37.9,46.6,37.9z"/>
	<path class="st1" d="M46.6,42.9h-2.5v2.5h2.5c0.7,0,1.3,0.6,1.3,1.3s-0.6,1.3-1.3,1.3h-2.5c-0.7,0-1.3-0.6-1.3-1.3h-2.5
		c0,2.1,1.7,3.8,3.8,3.8h2.5c2.1,0,3.8-1.7,3.8-3.8C50.4,44.5,48.7,42.9,46.6,42.9z"/>
	<rect x="44.1" y="36.6" class="st1" width="2.5" height="2.5"/>
	<rect x="44.1" y="49.1" class="st1" width="2.5" height="2.5"/>
	<path class="st1" d="M31.6,32.9c0,2.8-2.2,5-5,5v2.5c4.1,0,7.5-3.4,7.5-7.5L31.6,32.9L31.6,32.9z"/>
	<path class="st1" d="M59.1,32.9h-2.5c0,4.1,3.4,7.5,7.5,7.5v-2.5C61.4,37.9,59.1,35.6,59.1,32.9z"/>
	<path class="st1" d="M56.6,55.4h2.5c0-2.8,2.2-5,5-5v-2.5C60,47.9,56.6,51.2,56.6,55.4z"/>
	<path class="st1" d="M26.6,47.9v2.5c2.8,0,5,2.2,5,5h2.5C34.1,51.2,30.8,47.9,26.6,47.9z"/>
	<rect x="55.4" y="14.1" class="st1" width="6.2" height="2.5"/>
	<rect x="11.6" y="54.1" class="st1" width="10" height="2.5"/>
	<rect x="11.6" y="47.9" class="st1" width="10" height="2.5"/>
	<rect x="11.6" y="41.6" class="st1" width="10" height="2.5"/>
	<rect x="11.6" y="35.4" class="st1" width="10" height="2.5"/>
	<rect x="11.6" y="29.1" class="st1" width="10" height="2.5"/>
	<rect x="11.6" y="22.9" class="st1" width="26.3" height="2.5"/>
	<rect x="26.6" y="16.6" class="st1" width="17.5" height="2.5"/>
	<rect x="21.6" y="16.6" class="st1" width="2.5" height="2.5"/>
</g>
</svg>
