<?xml version="1.0" encoding="utf-8"?>
<!-- Generator: Adobe Illustrator 22.1.0, SVG Export Plug-In . SVG Version: 6.00 Build 0)  -->
<svg version="1.1" id="Layer_1" xmlns="http://www.w3.org/2000/svg" xmlns:xlink="http://www.w3.org/1999/xlink" x="0px" y="0px"
	 viewBox="0 0 70.7 70.7" style="enable-background:new 0 0 70.7 70.7;" xml:space="preserve">
<style type="text/css">
	.st0{fill:#CCCCCC;}
	.st1{fill:#29ABE2;}
</style>
<g>
	<path class="st0" d="M21.9,18.5c-1.9,0-3.4,1.5-3.4,3.4c0,1.9,1.5,3.4,3.4,3.4c1.9,0,3.4-1.5,3.4-3.4C25.2,20,23.7,18.5,21.9,18.5z
		 M21.9,23c-0.6,0-1.1-0.5-1.1-1.1c0-0.6,0.5-1.1,1.1-1.1s1.1,0.5,1.1,1.1C23,22.5,22.5,23,21.9,23z"/>
	<path class="st0" d="M62.3,47.8c-0.2-3.1-1.6-6-3.7-8.2l0.4-0.4l1.5,1.5L62,39l-4.5-4.5l-1.6,1.6l1.5,1.5l-0.5,0.5
		c-2-1.5-4.4-2.4-6.9-2.7V24.1c0-1.9-1.5-3.4-3.4-3.4H41v-4.5h10.2c0.6,3,3.6,5,6.6,4.4s5-3.6,4.4-6.6c-0.6-3-3.6-5-6.6-4.4
		c-2.2,0.5-3.9,2.2-4.4,4.4H41c-1.2,0-2.2,1-2.2,2.2v4.5h-3.4v-1.1c0-0.6-0.5-1.1-1.1-1.1h-2.7l2-1.9c0.5-0.4,0.5-1.1,0.1-1.6
		l-3.9-4.3c-0.4-0.5-1.1-0.5-1.6-0.1l-2.8,2.6V9.5c0-0.6-0.5-1.1-1.1-1.1h-4.5c-0.6,0-1.1,0.5-1.1,1.1v2.7l-1.9-2
		c-0.4-0.5-1.1-0.5-1.6-0.1l-4.3,3.9c-0.5,0.4-0.5,1.1-0.1,1.6l2.6,2.8H9.5c-0.6,0-1.1,0.5-1.1,1.1v4.5c0,0.6,0.5,1.1,1.1,1.1h2.7
		l-2,1.9c-0.5,0.4-0.5,1.1-0.1,1.6l3.9,4.3c0.4,0.5,1.1,0.5,1.6,0.1l2.8-2.6v3.8c0,0.6,0.5,1.1,1.1,1.1h4.5c0.6,0,1.1-0.5,1.1-1.1
		v-2.7l1.9,2c0.4,0.5,1.1,0.5,1.6,0.1l4.3-3.9c0.5-0.4,0.5-1.1,0.1-1.6l-2.6-2.8h3.8c0.6,0,1.1-0.5,1.1-1.1V23h11.2
		c0.6,0,1.1,0.5,1.1,1.1v11.3c-6.6,0.6-11.8,5.8-12.3,12.3h-5.7c-0.6,0-1.1,0.5-1.1,1.1V59H16.2v-6.8c3.7-0.6,6.1-4.1,5.5-7.8
		c-0.6-3.7-4.1-6.1-7.8-5.5s-6.1,4.1-5.5,7.8c0.5,2.8,2.7,5,5.5,5.5v8c0,0.6,0.5,1.1,1.1,1.1h14.6c0.6,0,1.1-0.5,1.1-1.1V50h4.6
		c0.6,7.4,7.1,13,14.5,12.4S62.9,55.2,62.3,47.8z M56.7,11.7c1.9,0,3.4,1.5,3.4,3.4s-1.5,3.4-3.4,3.4c-1.9,0-3.4-1.5-3.4-3.4
		S54.9,11.7,56.7,11.7z M33.1,23h-3.7c-0.5,0-0.9,0.3-1.1,0.8c-0.1,0.3-0.3,0.7-0.4,1c-0.2,0.4-0.2,0.9,0.2,1.3l2.5,2.7L28,31.2
		l-2.5-2.8c-0.4-0.3-0.9-0.4-1.3-0.3l-0.4,0.2c-0.4,0.2-0.7,0.6-0.7,1v3.8h-2.3v-3.7c0-0.5-0.3-0.9-0.8-1.1c-0.3-0.1-0.7-0.3-1-0.4
		c-0.4-0.2-0.9-0.2-1.3,0.2L15,30.6L12.6,28l2.8-2.5c0.3-0.4,0.4-0.9,0.2-1.3l-0.2-0.4c-0.2-0.4-0.6-0.7-1-0.7h-3.8v-2.2h3.7
		c0.5,0,0.9-0.3,1.1-0.8c0.1-0.3,0.3-0.7,0.4-1c0.2-0.4,0.2-0.9-0.2-1.3l-2.5-2.7l2.6-2.4l2.5,2.8c0.3,0.3,0.8,0.5,1.2,0.3l0.5-0.2
		c0.4-0.2,0.7-0.6,0.7-1v-3.7H23v3.7c0,0.5,0.3,0.9,0.8,1.1c0.3,0.1,0.7,0.3,1,0.4c0.4,0.2,0.9,0.2,1.3-0.2l2.7-2.5l2.4,2.6
		l-2.8,2.6c-0.3,0.4-0.4,0.9-0.2,1.3l0.2,0.4c0.2,0.4,0.6,0.7,1,0.7h3.8V23L33.1,23z M10.6,45.5c0-2.5,2-4.5,4.5-4.5s4.5,2,4.5,4.5
		c0,2.5-2,4.5-4.5,4.5S10.6,47.9,10.6,45.5z M48.9,60.1c-6.2,0-11.2-5-11.2-11.2s5-11.2,11.2-11.2s11.2,5,11.2,11.2
		S55.1,60.1,48.9,60.1z"/>
	<path class="st0" d="M48.9,39.8c-5,0-9,4-9,9s4,9,9,9v-2.2c-3.7,0-6.7-3-6.7-6.7c0-3.7,3-6.7,6.7-6.7c3.7,0,6.7,3,6.7,6.7h2.2
		C57.8,43.9,53.8,39.8,48.9,39.8z"/>
	<rect x="55.6" y="50" class="st0" width="2.2" height="2.2"/>
	<path class="st0" d="M47.7,48.4l-3,3l1.6,1.6l3.4-3.4c0.2-0.2,0.3-0.5,0.3-0.8v-4.5h-2.2V48.4z"/>
	<rect x="14" y="44.3" class="st0" width="2.2" height="2.2"/>
	<rect x="55.6" y="14" class="st0" width="2.2" height="2.2"/>
</g>
</svg>
