<?xml version="1.0" encoding="utf-8"?>
<!-- Generator: Adobe Illustrator 22.1.0, SVG Export Plug-In . SVG Version: 6.00 Build 0)  -->
<svg version="1.1" id="Layer_1" xmlns="http://www.w3.org/2000/svg" xmlns:xlink="http://www.w3.org/1999/xlink" x="0px" y="0px"
	 viewBox="0 0 70.7 70.7" style="enable-background:new 0 0 70.7 70.7;" xml:space="preserve">
<style type="text/css">
	.st0{fill:#29ABE2;}
</style>
<g>
	<path class="st0" d="M58.1,19.6c-1.9,0-3.5,1.6-3.5,3.5s1.6,3.5,3.5,3.5s3.5-1.6,3.5-3.5C61.6,21.2,60,19.6,58.1,19.6z M58.1,24.9
		c-1,0-1.7-0.8-1.7-1.7c0-1,0.8-1.7,1.7-1.7s1.7,0.8,1.7,1.7C59.8,24.1,59,24.9,58.1,24.9z"/>
	<path class="st0" d="M12.7,48.5c-1.9,0-3.5,1.6-3.5,3.5s1.6,3.5,3.5,3.5c1.9,0,3.5-1.6,3.5-3.5S14.6,48.5,12.7,48.5z M12.7,53.7
		c-1,0-1.7-0.8-1.7-1.7s0.8-1.7,1.7-1.7c1,0,1.7,0.8,1.7,1.7S13.6,53.7,12.7,53.7z"/>
	<path class="st0" d="M56.4,20.8l-7.5-3.6c-0.4-0.2-1,0-1.2,0.4c-0.2,0.4,0,1,0.4,1.2l7.5,3.6c0.1,0.1,0.3,0.1,0.4,0.1
		c0.3,0,0.6-0.2,0.8-0.5C57,21.5,56.8,21,56.4,20.8z"/>
	<path class="st0" d="M48.5,54.6c-1.9,0-3.5,1.6-3.5,3.5s1.6,3.5,3.5,3.5s3.5-1.6,3.5-3.5S50.4,54.6,48.5,54.6z M48.5,59.8
		c-1,0-1.7-0.8-1.7-1.7s0.8-1.7,1.7-1.7c1,0,1.7,0.8,1.7,1.7C50.2,59,49.4,59.8,48.5,59.8z"/>
	<path class="st0" d="M46.8,55.7L39.2,52c-0.4-0.2-1,0-1.2,0.4c-0.2,0.4,0,1,0.4,1.2l7.5,3.6c0.1,0.1,0.3,0.1,0.4,0.1
		c0.3,0,0.6-0.2,0.8-0.5C47.4,56.4,47.2,55.9,46.8,55.7z"/>
	<path class="st0" d="M35.4,32.7c-1.9,0-3.5,1.6-3.5,3.5c0,1.9,1.6,3.5,3.5,3.5c1.9,0,3.5-1.6,3.5-3.5
		C38.9,34.3,37.3,32.7,35.4,32.7z M35.4,38c-1,0-1.7-0.8-1.7-1.7c0-1,0.8-1.7,1.7-1.7c1,0,1.7,0.8,1.7,1.7S36.3,38,35.4,38z"/>
	<path class="st0" d="M33.8,33.9L28,29.4c-0.4-0.3-0.9-0.2-1.2,0.2c-0.3,0.4-0.2,0.9,0.2,1.2l5.8,4.5c0.2,0.1,0.3,0.2,0.5,0.2
		c0.3,0,0.5-0.1,0.7-0.3C34.3,34.8,34.2,34.2,33.8,33.9z"/>
	<path class="st0" d="M51.1,31.9c-5.3,0-9.6,4.3-9.6,9.6s4.3,9.6,9.6,9.6s9.6-4.3,9.6-9.6S56.4,31.9,51.1,31.9z M51.1,49.3
		c-4.3,0-7.9-3.5-7.9-7.9s3.5-7.9,7.9-7.9s7.9,3.5,7.9,7.9S55.4,49.3,51.1,49.3z"/>
	<path class="st0" d="M51.1,35.4c-1.9,0-3.5,1.6-3.5,3.5c0,1.9,1.6,3.5,3.5,3.5c1.9,0,3.5-1.6,3.5-3.5S53,35.4,51.1,35.4z
		 M51.1,40.6c-1,0-1.7-0.8-1.7-1.7c0-1,0.8-1.7,1.7-1.7c1,0,1.7,0.8,1.7,1.7S52,40.6,51.1,40.6z"/>
	<path class="st0" d="M53.6,44.1h-5.1c-1.5,0-2.7,1.2-2.7,2.6V49c0,0.3,0.2,0.6,0.4,0.8c1.5,0.8,3.1,1.3,4.8,1.3
		c1.7,0,3.3-0.4,4.8-1.3c0.3-0.2,0.4-0.4,0.4-0.8v-2.3C56.3,45.3,55.1,44.1,53.6,44.1z M54.6,48.5c-2.2,1.1-4.8,1.1-7,0v-1.8
		c0-0.5,0.4-0.9,1-0.9h5.1c0.5,0,1,0.4,1,0.9L54.6,48.5L54.6,48.5z"/>
	<path class="st0" d="M30.1,42.3c-5.3,0-9.6,4.3-9.6,9.6s4.3,9.6,9.6,9.6s9.6-4.3,9.6-9.6S35.4,42.3,30.1,42.3z M30.1,59.8
		c-4.3,0-7.9-3.5-7.9-7.9s3.5-7.9,7.9-7.9s7.9,3.5,7.9,7.9S34.5,59.8,30.1,59.8z"/>
	<path class="st0" d="M30.1,45.8c-1.9,0-3.5,1.6-3.5,3.5c0,1.9,1.6,3.5,3.5,3.5s3.5-1.6,3.5-3.5C33.6,47.4,32.1,45.8,30.1,45.8z
		 M30.1,51.1c-1,0-1.7-0.8-1.7-1.7c0-1,0.8-1.7,1.7-1.7c1,0,1.7,0.8,1.7,1.7S31.1,51.1,30.1,51.1z"/>
	<path class="st0" d="M32.7,54.6h-5.1c-1.5,0-2.7,1.2-2.7,2.6v2.3c0,0.3,0.2,0.6,0.4,0.8c1.5,0.8,3.1,1.3,4.8,1.3
		c1.7,0,3.3-0.4,4.8-1.3c0.3-0.2,0.4-0.4,0.4-0.8v-2.3C35.4,55.7,34.1,54.6,32.7,54.6z M33.6,59c-2.2,1.1-4.8,1.1-7,0v-1.8
		c0-0.5,0.4-0.9,1-0.9h5.1c0.5,0,1,0.4,1,0.9L33.6,59L33.6,59z"/>
	<path class="st0" d="M18.8,20.5c-5.3,0-9.6,4.3-9.6,9.6s4.3,9.6,9.6,9.6s9.6-4.3,9.6-9.6C28.4,24.8,24.1,20.5,18.8,20.5z M18.8,38
		c-4.3,0-7.9-3.5-7.9-7.9s3.5-7.9,7.9-7.9s7.9,3.5,7.9,7.9C26.6,34.5,23.1,38,18.8,38z"/>
	<path class="st0" d="M18.8,24c-1.9,0-3.5,1.6-3.5,3.5s1.6,3.5,3.5,3.5c1.9,0,3.5-1.6,3.5-3.5S20.7,24,18.8,24z M18.8,29.3
		c-1,0-1.7-0.8-1.7-1.7c0-1,0.8-1.7,1.7-1.7c1,0,1.7,0.8,1.7,1.7C20.5,28.5,19.7,29.3,18.8,29.3z"/>
	<path class="st0" d="M21.3,32.7h-5.1c-1.5,0-2.7,1.2-2.7,2.6v2.3c0,0.3,0.2,0.6,0.4,0.8c1.5,0.8,3.1,1.3,4.8,1.3
		c1.7,0,3.3-0.4,4.8-1.3c0.3-0.2,0.4-0.4,0.4-0.8v-2.3C24,33.9,22.8,32.7,21.3,32.7z M22.3,37.2c-2.2,1.1-4.8,1.1-7,0v-1.8
		c0-0.5,0.4-0.9,1-0.9h5.1c0.5,0,1,0.4,1,0.9L22.3,37.2L22.3,37.2z"/>
	<path class="st0" d="M39.7,9.2c-5.3,0-9.6,4.3-9.6,9.6s4.3,9.6,9.6,9.6s9.6-4.3,9.6-9.6C49.3,13.5,45,9.2,39.7,9.2z M39.7,26.6
		c-4.3,0-7.9-3.5-7.9-7.9s3.5-7.9,7.9-7.9s7.9,3.5,7.9,7.9C47.6,23.1,44.1,26.6,39.7,26.6z"/>
	<path class="st0" d="M39.7,12.7c-1.9,0-3.5,1.6-3.5,3.5s1.6,3.5,3.5,3.5s3.5-1.6,3.5-3.5S41.7,12.7,39.7,12.7z M39.7,17.9
		c-1,0-1.7-0.8-1.7-1.7c0-1,0.8-1.7,1.7-1.7s1.7,0.8,1.7,1.7C41.5,17.1,40.7,17.9,39.7,17.9z"/>
	<path class="st0" d="M42.3,21.4h-5.1c-1.5,0-2.7,1.2-2.7,2.6v2.3c0,0.3,0.2,0.6,0.4,0.8c1.5,0.8,3.1,1.3,4.8,1.3s3.3-0.4,4.8-1.3
		c0.3-0.2,0.4-0.4,0.4-0.8V24C45,22.6,43.8,21.4,42.3,21.4z M43.2,25.8c-2.2,1.1-4.8,1.1-7,0V24c0-0.5,0.4-0.9,1-0.9h5.1
		c0.5,0,1,0.4,1,0.9L43.2,25.8L43.2,25.8z"/>
	<path class="st0" d="M31.7,18.2c-0.3-0.4-0.9-0.4-1.2-0.1l-6,5.2c-0.4,0.3-0.4,0.9-0.1,1.2c0.2,0.2,0.4,0.3,0.7,0.3
		c0.2,0,0.4-0.1,0.6-0.2l6-5.2C31.9,19.1,32,18.6,31.7,18.2z"/>
	<path class="st0" d="M50.9,32.2l-5.2-7c-0.3-0.4-0.8-0.5-1.2-0.2c-0.4,0.3-0.5,0.8-0.2,1.2l5.2,7c0.2,0.2,0.4,0.3,0.7,0.3
		c0.2,0,0.4-0.1,0.5-0.2C51.1,33.2,51.2,32.6,50.9,32.2z"/>
	<path class="st0" d="M43.7,44.4c-0.3-0.4-0.8-0.5-1.2-0.2l-4.9,3.7c-0.4,0.3-0.5,0.8-0.2,1.2c0.2,0.2,0.4,0.3,0.7,0.3
		c0.2,0,0.4-0.1,0.5-0.2l4.9-3.7C43.9,45.3,44,44.7,43.7,44.4z"/>
	<path class="st0" d="M21.4,51.1h-6.1c-0.5,0-0.9,0.4-0.9,0.9s0.4,0.9,0.9,0.9h6.1c0.5,0,0.9-0.4,0.9-0.9S21.9,51.1,21.4,51.1z"/>
	<path class="st0" d="M18.8,9.2c-1.9,0-3.5,1.6-3.5,3.5c0,1.9,1.6,3.5,3.5,3.5c1.9,0,3.5-1.6,3.5-3.5C22.3,10.7,20.7,9.2,18.8,9.2z
		 M18.8,14.4c-1,0-1.7-0.8-1.7-1.7c0-1,0.8-1.7,1.7-1.7c1,0,1.7,0.8,1.7,1.7C20.5,13.6,19.7,14.4,18.8,14.4z"/>
	<path class="st0" d="M18.8,14.4c-0.5,0-0.9,0.4-0.9,0.9v6.1c0,0.5,0.4,0.9,0.9,0.9s0.9-0.4,0.9-0.9v-6.1
		C19.6,14.8,19.3,14.4,18.8,14.4z"/>
</g>
</svg>
