<?xml version="1.0" encoding="utf-8"?>
<!-- Generator: Adobe Illustrator 22.1.0, SVG Export Plug-In . SVG Version: 6.00 Build 0)  -->
<svg version="1.1" id="Layer_1" xmlns="http://www.w3.org/2000/svg" xmlns:xlink="http://www.w3.org/1999/xlink" x="0px" y="0px"
	 viewBox="0 0 70.7 70.7" style="enable-background:new 0 0 70.7 70.7;" xml:space="preserve">
<style type="text/css">
	.st0{fill:#29ABE2;}
	.st1{fill:#CCCCCC;}
</style>
<g>
	<path class="st0" d="M47.8,37.4L44.3,34c-0.2-0.2-0.5-0.3-0.8-0.3H27.2c-0.3,0-0.6,0.1-0.8,0.3l-3.5,3.5c-0.2,0.2-0.3,0.5-0.3,0.8
		v23.3c0,0.6,0.5,1.2,1.2,1.2H47c0.6,0,1.2-0.5,1.2-1.2V38.3C48.2,38,48,37.7,47.8,37.4z M39.3,35.9H43l-4.2,4.2L37,38.3L39.3,35.9z
		 M37.2,41.8l-1.5,1.5c-0.2,0.2-0.3,0.5-0.3,0.8c0-0.3-0.1-0.6-0.3-0.8l-1.5-1.5l1.8-1.8L37.2,41.8z M36,35.9l-0.7,0.7l-0.7-0.7H36z
		 M31.4,35.9l2.3,2.3l-1.8,1.8l-4.2-4.2H31.4z M30.9,60.4h-6V38.8l1.2-1.2l5,5l1.9,1.9L30.9,60.4z M33.2,60.4l2.1-16.1
		c0,0,0-0.1,0-0.1c0,0.1,0,0.1,0,0.2l3.2,16.1H33.2z M45.8,60.4H41l-3.2-15.9l1.9-1.9l5-5l1.2,1.2V60.4z"/>
	<path class="st0" d="M43.5,8H33c-3.9,0-7,3.1-7,7v7c0,5.1,4.2,9.3,9.3,9.3c5.1,0,9.3-4.2,9.3-9.3V9.2C44.7,8.6,44.1,8,43.5,8z
		 M42.3,22c0,3.9-3.1,7-7,7s-7-3.1-7-7v-4.7h9.3c1.7,0,3.4-0.6,4.7-1.8V22z M37.7,15h-9.3c0-2.6,2.1-4.7,4.7-4.7h9.3
		C42.3,12.9,40.3,15,37.7,15z"/>
	<path class="st0" d="M69.9,42.1l-3.5-3.5c-0.2-0.2-0.5-0.3-0.8-0.3h-9.3c-0.3,0-0.6,0.1-0.8,0.3L52,42.1c-0.2,0.2-0.3,0.5-0.3,0.8
		v18.6c0,0.6,0.5,1.2,1.2,1.2h16.3c0.6,0,1.2-0.5,1.2-1.2V42.9C70.2,42.6,70.1,42.3,69.9,42.1z M67.9,60.4h-5.8V42.9h-2.3v17.4H54
		v-17l2.3-2.3l2.7,2.7l0.8-0.8l0.8-0.8l-1.5-1.5h3.8l-1.6,1.5l0.8,0.8l0.8,0.8l2.8-2.6l2.2,2.2V60.4z"/>
	<path class="st0" d="M62.1,18.5h-2.3c-3.2,0-5.8,2.6-5.8,5.8l0,5.8c0,3.8,3.1,7,6.9,7c0,0,0,0,0,0c3.8,0,7-3.1,7-7v-5.8
		C67.9,21.1,65.3,18.5,62.1,18.5z M56.3,24.3c0-1.9,1.5-3.5,3.5-3.5C59.8,22.7,58.2,24.3,56.3,24.3L56.3,24.3z M65.6,30.1
		c0,2.6-2.1,4.6-4.6,4.6c-2.6,0-4.6-2.1-4.6-4.6c0,0,0,0,0,0l0-3.5c1.8,0,3.5-0.9,4.6-2.3c1.1,1.5,2.8,2.3,4.7,2.3V30.1L65.6,30.1z
		 M62.1,20.8c1.9,0,3.5,1.6,3.5,3.5C63.7,24.3,62.1,22.8,62.1,20.8z"/>
	<path class="st0" d="M18.7,42.1l-3.5-3.5c-0.2-0.2-0.5-0.3-0.8-0.3H5.1c-0.3,0-0.6,0.1-0.8,0.3l-3.5,3.5c-0.2,0.2-0.3,0.5-0.3,0.8
		v18.6c0,0.6,0.5,1.2,1.2,1.2h16.3c0.6,0,1.2-0.5,1.2-1.2V42.9C19.1,42.6,19,42.3,18.7,42.1z M16.8,60.4h-5.8V42.9H8.6v17.4H2.8v-17
		l2.3-2.3l2.7,2.7l0.8-0.8l0.8-0.8l-1.5-1.5h3.8l-1.6,1.5l0.8,0.8l0.8,0.8l2.8-2.6l2.2,2.2V60.4z"/>
	<path class="st0" d="M10.9,18.5H8.7c-3.2,0-5.8,2.6-5.8,5.8l0,5.8c0,3.8,3.1,7,6.9,7c0,0,0,0,0,0c3.8,0,7-3.1,7-7v-5.8
		C16.8,21.1,14.2,18.5,10.9,18.5z M10.9,20.8c1.5,0,2.8,0.9,3.3,2.3h-2.1c-1.5,0-2.8-0.9-3.3-2.3H10.9z M6.3,21.8V22
		c0,0.3-0.1,0.6-0.3,0.8c-0.2,0.1-0.3,0.2-0.5,0.3C5.6,22.6,5.9,22.1,6.3,21.8z M14.4,30.1c0,2.6-2.1,4.6-4.6,4.6
		c-2.6,0-4.6-2.1-4.6-4.6c0,0,0,0,0,0l0-4.7c0.9,0,1.8-0.4,2.4-1c0.2-0.2,0.3-0.4,0.5-0.6c1.1,1,2.5,1.6,4,1.6h2.3V30.1z"/>
</g>
</svg>
