<svg xmlns="http://www.w3.org/2000/svg" width="55.213" height="55.213" viewBox="0 0 55.213 55.213">
  <g id="Group_560" data-name="Group 560" transform="translate(-1539.219 -2683.418)">
    <g id="Group_547" data-name="Group 547">
      <g id="Group_546" data-name="Group 546">
        <path id="Path_271" data-name="Path 271" d="M1594.116,2693.546l-9.814-9.812a1.078,1.078,0,0,0-.762-.316h-32.028a3.238,3.238,0,0,0-3.235,3.235v2.056a14.266,14.266,0,0,0-9.058,13.267,1.078,1.078,0,0,0,1.078,1.078h13.166a1.078,1.078,0,0,0,1.078-1.078V2688.81a1.077,1.077,0,0,0-1.078-1.078,14.2,14.2,0,0,0-3.029.325v-1.4a1.08,1.08,0,0,1,1.078-1.078h30.95v6.578a3.238,3.238,0,0,0,3.235,3.235h6.578V2735.4a1.08,1.08,0,0,1-1.079,1.078h-39.684a1.08,1.08,0,0,1-1.078-1.078v-9.238a1.078,1.078,0,1,0-2.157,0v9.238a3.239,3.239,0,0,0,3.235,3.235H1591.2a3.239,3.239,0,0,0,3.236-3.235v-41.088A1.078,1.078,0,0,0,1594.116,2693.546Zm-41.731-3.61V2700.9h-10.962A12.109,12.109,0,0,1,1552.385,2689.936Zm33.312,3.295a1.08,1.08,0,0,1-1.079-1.078V2687.1l6.133,6.131Z" fill="#ccc"/>
      </g>
    </g>
    <g id="Group_549" data-name="Group 549">
      <g id="Group_548" data-name="Group 548">
        <path id="Path_272" data-name="Path 272" d="M1557.326,2691.594a1.079,1.079,0,0,0-1.079,1.079v12.087H1544.16a1.079,1.079,0,0,0-1.079,1.078,14.244,14.244,0,1,0,14.245-14.244Zm1.078,2.205a12.034,12.034,0,0,1,6.668,2.768l-6.668,6.668Zm-1.078,24.127a12.1,12.1,0,0,1-12.04-11.009h12.04a1.076,1.076,0,0,0,.762-.316h0l8.51-8.509a12.082,12.082,0,0,1-9.272,19.834Z" fill="#ccc"/>
      </g>
    </g>
    <g id="Group_551" data-name="Group 551">
      <g id="Group_550" data-name="Group 550">
        <path id="Path_273" data-name="Path 273" d="M1581.069,2712h-5.691a1.078,1.078,0,1,0,0,2.157h5.691a1.078,1.078,0,1,0,0-2.157Z" fill="#ccc"/>
      </g>
    </g>
    <g id="Group_553" data-name="Group 553">
      <g id="Group_552" data-name="Group 552">
        <path id="Path_274" data-name="Path 274" d="M1588.551,2706.819h-13.173a1.078,1.078,0,1,0,0,2.157h13.173a1.078,1.078,0,0,0,0-2.157Z" fill="#ccc"/>
      </g>
    </g>
    <g id="Group_555" data-name="Group 555">
      <g id="Group_554" data-name="Group 554">
        <path id="Path_275" data-name="Path 275" d="M1588.551,2717.171h-13.173a1.078,1.078,0,1,0,0,2.157h13.173a1.078,1.078,0,0,0,0-2.157Z" fill="#ccc"/>
      </g>
    </g>
    <g id="Group_557" data-name="Group 557">
      <g id="Group_556" data-name="Group 556">
        <path id="Path_276" data-name="Path 276" d="M1588.207,2722.347h-20.283a1.085,1.085,0,1,0,0,2.157h20.283a1.085,1.085,0,1,0,0-2.157Z" fill="#ccc"/>
      </g>
    </g>
    <g id="Group_559" data-name="Group 559">
      <g id="Group_558" data-name="Group 558">
        <path id="Path_277" data-name="Path 277" d="M1587.289,2727.524h-30.31c-1.292,0-1.8.483-1.8,1.078s.508,1.078,1.8,1.078h30.31c1.292,0,1.8-.482,1.8-1.078S1588.581,2727.524,1587.289,2727.524Z" fill="#ccc"/>
      </g>
    </g>
  </g>
</svg>
