<?xml version="1.0" encoding="utf-8"?>
<!-- Generator: Adobe Illustrator 22.1.0, SVG Export Plug-In . SVG Version: 6.00 Build 0)  -->
<svg version="1.1" id="Layer_1" xmlns="http://www.w3.org/2000/svg" xmlns:xlink="http://www.w3.org/1999/xlink" x="0px" y="0px"
	 viewBox="0 0 70.7 70.7" style="enable-background:new 0 0 70.7 70.7;" xml:space="preserve">
<style type="text/css">
	.st0{fill:#CCCCCC;}
	.st1{fill:#29ABE2;}
</style>
<g>
	<g>
		<path class="st1" d="M41.2,19.4V14c0-3.1-2.5-5.6-5.6-5.6H10.8c-0.3,0-0.6,0.1-0.8,0.3l-9,9c-0.2,0.2-0.3,0.5-0.3,0.8v38.3
			c0,3.1,2.5,5.6,5.6,5.6h29.2c3.1,0,5.6-2.5,5.6-5.6H39c0,1.9-1.5,3.4-3.4,3.4H6.3c-1.9,0-3.4-1.5-3.4-3.4V19l8.3-8.3h24.3
			c1.9,0,3.4,1.5,3.4,3.4v5.5L41.2,19.4L41.2,19.4z"/>
	</g>
	<g>
		<path class="st1" d="M9.7,9.5v6.8c0,0.6-0.5,1.1-1.1,1.1H6.3v2.2h2.2c1.9,0,3.4-1.5,3.4-3.4V9.5H9.7z"/>
	</g>
	<g>
		<rect x="8.3" y="52.2" class="st1" width="18.9" height="2.2"/>
	</g>
	<g>
		<rect x="8.3" y="46.6" class="st1" width="18.9" height="2.2"/>
	</g>
	<g>
		<rect x="8.3" y="41" class="st1" width="18.9" height="2.2"/>
	</g>
	<g>
		<rect x="8.3" y="35.4" class="st1" width="18.9" height="2.2"/>
	</g>
	<g>
		<rect x="8.3" y="29.7" class="st1" width="18.9" height="2.2"/>
	</g>
	<g>
		<rect x="8.3" y="24.1" class="st1" width="23.6" height="2.2"/>
	</g>
	<g>
		<rect x="19.8" y="18.5" class="st1" width="15.7" height="2.2"/>
	</g>
	<g>
		<rect x="15.3" y="18.5" class="st1" width="2.2" height="2.2"/>
	</g>
	<path class="st1" d="M70,32.3c-0.1-1-1.2-1.8-3.6-2.3c0.1-0.2,0.1-0.4,0.1-0.5v-4h0c-0.2-3.4-14-3.5-15.6-3.5S35.6,22,35.4,25.3h0
		v0.1l0,0l0,0v4c0,1.1,1.4,2,3.5,2.6c0,0.1,0,0.2-0.1,0.3h0v0.1l0,0l0,0v4c-2.3,0.6-3.4,1.3-3.5,2.3h0v0.1l0,0l0,0v4
		c0,0.8,0.7,1.4,1.8,2c0,0.1-0.1,0.2-0.1,0.4h0V45l0,0l0,0v4c0,1.9,4.3,3.1,9.1,3.7c0,0,0.1,0,0.1,0c0,0,0,0,0,0
		c0.9,0.1,1.9,0.2,2.8,0.2c0,0,0,0,0.1,0c0,0,0,0,0,0c1.2,0.1,2.3,0.1,3.4,0.1c1.1,0,2.3,0,3.4-0.1c0,0,0,0,0,0c0,0,0,0,0.1,0
		c0.9-0.1,1.9-0.1,2.8-0.2c0,0,0,0,0,0c0,0,0.1,0,0.1,0c4.8-0.6,9.1-1.7,9.1-3.7v-4h0c0-0.7-0.6-1.3-1.8-1.8
		c0.1-0.2,0.1-0.3,0.1-0.5v-3.8c2.1-0.6,3.5-1.5,3.5-2.6L70,32.3L70,32.3z M65.3,42.8L65.1,43c-0.3,0.3-0.8,0.5-1.5,0.8V41
		c0.7-0.2,1.3-0.5,1.7-0.8v2.4C65.4,42.7,65.4,42.8,65.3,42.8z M52.4,45.5c-0.1,0-0.2,0-0.3,0c-0.2,0-0.4,0-0.6,0v-2.9
		c0.2,0,0.3,0,0.5,0c0,0,0.1,0,0.1,0c0.6,0,1.2,0,1.7-0.1v2.9c-0.1,0-0.2,0-0.4,0C53.1,45.5,52.8,45.5,52.4,45.5z M49.9,45.5
		c-0.3,0-0.5,0-0.8,0c0,0-0.1,0-0.1,0c-0.3,0-0.6,0-0.9,0v-2.9c0.6,0,1.2,0,1.7,0.1c0,0,0.1,0,0.1,0c0.2,0,0.3,0,0.5,0v2.9
		c-0.1,0-0.2,0-0.3,0C50,45.5,49.9,45.5,49.9,45.5z M39.5,44.2C39.5,44.2,39.4,44.2,39.5,44.2l-0.1-2.8c0.5,0.1,1.1,0.3,1.7,0.4v2.8
		c-0.5-0.1-1-0.2-1.5-0.4C39.6,44.2,39.5,44.2,39.5,44.2z M51.6,49c0.2,0,0.3,0,0.5,0v2.9c-0.8,0-1.6,0-2.3-0.1v-2.9
		C50.4,49,51,49,51.6,49C51.6,49,51.6,49,51.6,49z M53.8,49c0.6,0,1.2,0,1.7-0.1v2.9c-0.7,0-1.5,0.1-2.3,0.1V49
		C53.4,49,53.6,49,53.8,49C53.8,49,53.8,49,53.8,49z M58.5,48.7v2.9c-0.6,0.1-1.1,0.1-1.7,0.2v-2.9C57.3,48.8,57.9,48.8,58.5,48.7z
		 M59.6,48.6c0.6-0.1,1.2-0.2,1.7-0.2v2.8c-0.5,0.1-1.1,0.2-1.7,0.3V48.6z M62.5,48.1c0.6-0.1,1.2-0.3,1.7-0.4v2.8
		c-0.5,0.1-1.1,0.3-1.7,0.4V48.1z M42.9,48.1V51c-0.6-0.1-1.2-0.3-1.7-0.4v-2.8C41.7,47.9,42.3,48,42.9,48.1z M44,48.4
		c0.6,0.1,1.1,0.2,1.7,0.2v2.9c-0.6-0.1-1.2-0.2-1.7-0.3V48.4z M46.9,48.7c0.6,0.1,1.1,0.1,1.7,0.1v2.9c-0.6,0-1.2-0.1-1.7-0.2V48.7
		z M45.5,45.3c-0.1,0-0.1,0-0.2,0c0,0-0.1,0-0.1,0v-2.9c0.6,0.1,1.1,0.1,1.7,0.1v2.9C46.4,45.4,46,45.3,45.5,45.3z M44,42.2v2.9
		c-0.6-0.1-1.2-0.2-1.7-0.3V42C42.9,42.1,43.4,42.2,44,42.2z M55.4,45.4c-0.1,0-0.3,0-0.4,0v-2.9c0.6,0,1.2-0.1,1.7-0.1v2.9
		c-0.4,0-0.7,0.1-1.1,0.1C55.6,45.3,55.5,45.4,55.4,45.4z M57.9,45.1v-2.9c0.6-0.1,1.2-0.2,1.7-0.2v2.8C59.1,44.9,58.5,45,57.9,45.1
		z M60.8,41.8c0.6-0.1,1.2-0.3,1.7-0.4v2.8c-0.5,0.1-1.1,0.3-1.7,0.4V41.8z M52.9,39.2c-0.4,0-0.9,0-1.3,0c0,0,0,0-0.1,0v-2.9
		c0.6,0,1.2,0,1.7,0.1c0,0,0.1,0,0.1,0c0.2,0,0.3,0,0.5,0v2.9c-0.3,0-0.6,0-0.8,0C53,39.2,52.9,39.2,52.9,39.2z M39.4,30.9v-2.8
		c0.5,0.1,1.1,0.3,1.7,0.4v2.8c-0.1,0-0.1,0-0.2,0c-0.3-0.1-0.6-0.1-0.9-0.2C39.8,31,39.6,31,39.4,30.9z M49.9,29.4
		c0.2,0,0.3,0,0.5,0v2.9c-0.8,0-1.5,0-2.3-0.1v-2.9C48.7,29.3,49.2,29.3,49.9,29.4C49.8,29.4,49.9,29.4,49.9,29.4z M52.1,29.4
		c0.6,0,1.2,0,1.7-0.1v2.9c-0.1,0-0.2,0-0.3,0c0,0,0,0,0,0c-0.4,0-0.8,0-1.2,0c-0.1,0-0.1,0-0.2,0c-0.2,0-0.4,0-0.6,0v-2.9
		C51.7,29.4,51.9,29.4,52.1,29.4C52,29.4,52.1,29.4,52.1,29.4z M65.3,29.6L65.3,29.6L65,29.8c-0.3,0.2-0.8,0.5-1.4,0.7v-2.7
		c0.7-0.2,1.3-0.5,1.7-0.8v2.4C65.4,29.5,65.3,29.5,65.3,29.6z M57.9,31.8V29c0.6-0.1,1.2-0.2,1.7-0.2v2.8
		C59.1,31.7,58.5,31.7,57.9,31.8z M60.8,31.3v-2.8c0.6-0.1,1.2-0.3,1.7-0.4v2.8C62,31.1,61.4,31.2,60.8,31.3z M56.7,29.1V32
		c-0.6,0.1-1.1,0.1-1.7,0.2v-2.9C55.6,29.2,56.2,29.1,56.7,29.1z M45.2,32v-2.9c0.6,0.1,1.1,0.1,1.7,0.1v2.9
		C46.3,32.1,45.8,32,45.2,32z M44,29v2.9c-0.1,0-0.2,0-0.3,0c-0.1,0-0.1,0-0.2,0c-0.3,0-0.7-0.1-1-0.2c-0.1,0-0.1,0-0.2,0v-2.8
		C42.9,28.8,43.4,28.9,44,29z M50.2,39c-0.1,0-0.2,0-0.2,0c-0.4,0-0.7-0.1-1.1-0.1c-0.1,0-0.2,0-0.2,0c0,0,0,0,0,0V36
		c0.6,0.1,1.1,0.1,1.7,0.1V39C50.3,39,50.3,39,50.2,39z M46.4,38.6c-0.2,0-0.4-0.1-0.7-0.1v-2.8c0.6,0.1,1.1,0.2,1.7,0.2v2.9
		C47.1,38.7,46.8,38.7,46.4,38.6C46.5,38.6,46.4,38.6,46.4,38.6z M44.6,35.4v2.8c-0.6-0.1-1.2-0.3-1.7-0.4V35
		C43.4,35.2,44,35.3,44.6,35.4z M41.7,34.7v2.7c-0.9-0.4-1.5-0.7-1.7-1l0-0.1c0,0,0,0,0-0.1v-2.4C40.5,34.2,41,34.5,41.7,34.7z
		 M55.6,36.3c0.6,0,1.2,0,1.7-0.1v2.9c-0.8,0-1.5,0.1-2.3,0.1v-2.9C55.2,36.3,55.3,36.3,55.6,36.3C55.5,36.3,55.5,36.3,55.6,36.3z
		 M63,38.5c-0.3,0-0.5,0.1-0.8,0.1c-0.2,0-0.3,0-0.5,0.1c-0.1,0-0.3,0-0.4,0.1v-2.9c0.6-0.1,1.2-0.2,1.7-0.2L63,38.5
		C63.1,38.5,63,38.5,63,38.5z M59.1,39c-0.2,0-0.4,0-0.7,0v-2.9c0.6,0,1.2-0.1,1.7-0.1v2.9C59.9,38.9,59.5,39,59.1,39
		C59.2,39,59.1,39,59.1,39z M65.7,37.9c-0.3,0.1-0.6,0.2-0.9,0.2c-0.1,0-0.3,0.1-0.4,0.1c0,0-0.1,0-0.1,0v-2.8
		c0.6-0.1,1.2-0.3,1.7-0.4v2.8C65.9,37.9,65.8,37.9,65.7,37.9z M68.9,32.3c-0.1,0.4-0.9,0.9-2.5,1.4l0,0c-2,0.6-5.2,1.2-9.3,1.4
		c-0.2,0-0.4,0-0.6,0c-0.2,0-0.3,0-0.5,0c-0.5,0-1,0-1.5,0c-0.5,0-1,0-1.5,0c-0.2,0-0.3,0-0.5,0c-0.2,0-0.4,0-0.6,0
		c-4.1-0.2-7.2-0.8-9.3-1.4l0,0c-1.6-0.5-2.5-1-2.5-1.4c0,0,0,0,0,0c0,0,0.1,0,0.1,0c0.2,0.1,0.5,0.1,0.7,0.2
		c1.1,0.2,2.4,0.4,3.8,0.6c0,0,0,0,0,0c0,0,0,0,0,0c0.9,0.1,1.9,0.2,2.9,0.2c0,0,0,0,0,0c0,0,0,0,0,0c0.7,0,1.4,0.1,2.1,0.1
		c0.4,0,0.9,0,1.3,0c0.3,0,0.6,0,0.9,0c4.2-0.1,8.1-0.6,10.8-1.3c0.1,0,0.2-0.1,0.4-0.1c0.1,0,0.1,0,0.2-0.1
		c0.2-0.1,0.4-0.1,0.6-0.2c0,0,0.1,0,0.1,0c0.2-0.1,0.3-0.1,0.5-0.2c0,0,0.1,0,0.1-0.1c0.2-0.1,0.3-0.1,0.5-0.2
		c0.1,0,0.1-0.1,0.2-0.1c0.1,0,0.1-0.1,0.2-0.1c0,0,0.1,0,0.1-0.1C68.1,31.4,68.8,32.1,68.9,32.3z M51,23c9.5,0,14.3,1.5,14.4,2.4
		c-0.1,0.4-1,0.9-2.5,1.4l0,0c-2,0.6-5.2,1.2-9.3,1.4c-0.2,0-0.4,0-0.6,0c-0.2,0-0.3,0-0.5,0c-0.5,0-1,0-1.5,0c-0.5,0-1,0-1.5,0
		c-0.2,0-0.3,0-0.5,0c-0.2,0-0.4,0-0.6,0c-4.1-0.2-7.2-0.8-9.3-1.4l0,0c-1.6-0.5-2.5-1-2.5-1.4C36.6,24.5,41.4,23,51,23z M36.5,29.4
		V27c0.5,0.3,1,0.6,1.7,0.8v2.8C37.1,30.1,36.5,29.7,36.5,29.4z M39.3,37.4C39.3,37.4,39.3,37.4,39.3,37.4c0.8,0.8,2.5,1.5,4.5,1.9
		c0,0,0.1,0,0.1,0c0.1,0,0.3,0.1,0.5,0.1c1.9,0.4,4.1,0.7,6.5,0.8c0,0,0,0,0,0c0,0,0,0,0,0c0.8,0,1.6,0.1,2.4,0.1c0.4,0,0.7,0,1.1,0
		c0.4,0,0.8,0,1.2,0c0.8,0,1.5,0,2.2-0.1c0,0,0,0,0,0c0,0,0,0,0,0c2.4-0.1,4.7-0.4,6.7-0.9c-0.4,0.2-1,0.4-1.7,0.7l0,0
		c-2.2,0.7-5.6,1.3-10,1.4c-0.1,0-0.3,0-0.4,0c-0.1,0-0.3,0-0.4,0c-0.4,0-0.7,0-1.1,0c-0.5,0-1,0-1.5,0c-0.2,0-0.3,0-0.5,0
		c-0.2,0-0.4,0-0.6,0c-4.1-0.2-7.2-0.8-9.3-1.4l0,0c-1.6-0.5-2.5-1-2.5-1.4C36.6,38.4,37.2,37.9,39.3,37.4z M36.5,42.6v-2.4
		c0.5,0.3,1,0.6,1.7,0.8v2.8l-0.3-0.1l0,0C37,43.3,36.5,42.9,36.5,42.6z M38.3,49v-2.4c0.5,0.3,1,0.6,1.7,0.8v2.8
		C38.9,49.7,38.3,49.3,38.3,49z M65.4,50.2v-2.8c0.7-0.2,1.3-0.5,1.7-0.8V49C67.1,49.3,66.5,49.7,65.4,50.2z M67.1,45
		c-0.1,0.4-0.9,0.9-2.5,1.4l0,0c-2,0.6-5.2,1.2-9.3,1.4c-0.2,0-0.4,0-0.6,0c-0.2,0-0.3,0-0.5,0c-0.5,0-1,0-1.5,0c-0.5,0-1,0-1.5,0
		c-0.2,0-0.3,0-0.5,0c-0.2,0-0.4,0-0.6,0c-4.1-0.2-7.2-0.8-9.3-1.4l0,0c-1.5-0.5-2.4-1-2.5-1.4c0.2,0.1,0.4,0.1,0.5,0.2
		c0,0,0,0,0.1,0c0.2,0,0.3,0.1,0.5,0.1c0.1,0,0.1,0,0.2,0.1c0.1,0,0.2,0,0.3,0.1c2.1,0.5,4.8,0.9,7.7,1.1c0,0,0,0,0,0c0,0,0,0,0,0
		c0.9,0.1,1.8,0.1,2.7,0.1c0.2,0,0.5,0,0.7,0c0.3,0,0.6,0,1,0c0.8,0,1.7,0,2.5-0.1c0,0,0,0,0,0c0,0,0,0,0,0c1-0.1,1.9-0.1,2.9-0.2
		c0,0,0,0,0,0c0,0,0,0,0,0c1-0.1,2-0.3,2.9-0.4c0.2,0,0.4-0.1,0.6-0.1c0,0,0.1,0,0.1,0c1.7-0.3,3.2-0.8,4.2-1.4
		c0.1,0,0.1-0.1,0.2-0.1c0.1,0,0.1-0.1,0.2-0.1c0.1,0,0.1-0.1,0.2-0.1C66.8,44.5,67.1,44.9,67.1,45z M67.1,37.5v-2.8
		c0.7-0.2,1.3-0.5,1.7-0.8v2.4C68.9,36.6,68.2,37,67.1,37.5z"/>
</g>
</svg>
