<?xml version="1.0" encoding="utf-8"?>
<!-- Generator: Adobe Illustrator 22.1.0, SVG Export Plug-In . SVG Version: 6.00 Build 0)  -->
<svg version="1.1" id="Layer_1" xmlns="http://www.w3.org/2000/svg" xmlns:xlink="http://www.w3.org/1999/xlink" x="0px" y="0px"
	 viewBox="0 0 70.7 70.7" style="enable-background:new 0 0 70.7 70.7;" xml:space="preserve">
<style type="text/css">
	.st0{fill:#CCCCCC;}
	.st1{fill:#29ABE2;}
</style>
<g>
	<path class="st0" d="M65.7,29.6L36.3,8c-0.6-0.4-1.3-0.4-1.9,0L5,29.6c-0.7,0.5-0.9,1.5-0.3,2.3c0.5,0.7,1.5,0.9,2.3,0.3l28.4-20.8
		l28.4,20.8c0.3,0.2,0.6,0.3,1,0.3c0.5,0,1-0.2,1.3-0.7C66.6,31.1,66.4,30.1,65.7,29.6z"/>
	<path class="st0" d="M57.9,32.5c-0.9,0-1.6,0.7-1.6,1.6v25.6H43.4v-14c0-4.4-3.6-8.1-8.1-8.1s-8.1,3.6-8.1,8.1v14H14.4V34.1
		c0-0.9-0.7-1.6-1.6-1.6c-0.9,0-1.6,0.7-1.6,1.6v27.2c0,0.9,0.7,1.6,1.6,1.6h16.1c0.8,0,1.5-0.7,1.6-1.5c0,0,0-0.1,0-0.1V45.8
		c0-2.7,2.2-4.8,4.8-4.8c2.7,0,4.8,2.2,4.8,4.8v15.6c0,0,0,0.1,0,0.1c0.1,0.8,0.8,1.5,1.6,1.5h16.1c0.9,0,1.6-0.7,1.6-1.6V34.1
		C59.5,33.2,58.8,32.5,57.9,32.5z"/>
</g>
</svg>
