<?xml version="1.0" encoding="utf-8"?>
<!-- Generator: Adobe Illustrator 22.1.0, SVG Export Plug-In . SVG Version: 6.00 Build 0)  -->
<svg version="1.1" id="Layer_1" xmlns="http://www.w3.org/2000/svg" xmlns:xlink="http://www.w3.org/1999/xlink" x="0px" y="0px"
	 viewBox="0 0 70.7 70.7" style="enable-background:new 0 0 70.7 70.7;" xml:space="preserve">
<style type="text/css">
	.st0{fill:#CCCCCC;}
	.st1{fill:#29ABE2;}
</style>
<g>
	<rect x="27.2" y="26.3" class="st0" width="1.8" height="1.8"/>
	<rect x="27.2" y="29.9" class="st0" width="1.8" height="1.8"/>
	<rect x="27.2" y="33.5" class="st0" width="1.8" height="1.8"/>
	<rect x="27.2" y="37.2" class="st0" width="1.8" height="1.8"/>
	<rect x="30.8" y="26.3" class="st0" width="1.8" height="1.8"/>
	<rect x="30.8" y="29.9" class="st0" width="1.8" height="1.8"/>
	<rect x="30.8" y="33.5" class="st0" width="1.8" height="1.8"/>
	<rect x="30.8" y="37.2" class="st0" width="1.8" height="1.8"/>
	<rect x="34.5" y="26.3" class="st0" width="1.8" height="1.8"/>
	<rect x="34.5" y="29.9" class="st0" width="1.8" height="1.8"/>
	<rect x="34.5" y="33.5" class="st0" width="1.8" height="1.8"/>
	<rect x="34.5" y="37.2" class="st0" width="1.8" height="1.8"/>
	<rect x="38.1" y="26.3" class="st0" width="1.8" height="1.8"/>
	<rect x="30.8" y="22.6" class="st0" width="1.8" height="1.8"/>
	<rect x="34.5" y="22.6" class="st0" width="1.8" height="1.8"/>
	<rect x="38.1" y="22.6" class="st0" width="1.8" height="1.8"/>
	<rect x="38.1" y="29.9" class="st0" width="1.8" height="1.8"/>
	<rect x="38.1" y="33.5" class="st0" width="1.8" height="1.8"/>
	<rect x="38.1" y="37.2" class="st0" width="1.8" height="1.8"/>
	<rect x="41.7" y="26.3" class="st0" width="1.8" height="1.8"/>
	<rect x="41.7" y="29.9" class="st0" width="1.8" height="1.8"/>
	<rect x="41.7" y="33.5" class="st0" width="1.8" height="1.8"/>
	<rect x="41.7" y="37.2" class="st0" width="1.8" height="1.8"/>
	<path class="st0" d="M61.8,21.7C61.8,21.7,61.8,21.7,61.8,21.7H48.1V8.9c0-0.5-0.4-0.9-0.9-0.9c0,0,0,0,0,0H23.5
		c-0.5,0-0.9,0.4-0.9,0.9c0,0,0,0,0,0v12.8H8.9c-0.5,0-0.9,0.4-0.9,0.9c0,0,0,0,0,0v32.8c0,0.5,0.4,0.9,0.9,0.9c0,0,0,0,0,0h1.9
		c-0.1,0.3-0.1,0.6-0.1,0.9v4.6c0,0.5,0.4,0.9,0.9,0.9c0,0,0,0,0,0H59c0.5,0,0.9-0.4,0.9-0.9c0,0,0,0,0,0v-4.6c0-0.3,0-0.6-0.1-0.9
		h1.9c0.5,0,0.9-0.4,0.9-0.9c0,0,0,0,0,0V22.6C62.7,22.1,62.3,21.7,61.8,21.7z M47.2,47.2c0,1-0.8,1.8-1.8,1.8c-1,0-1.8-0.8-1.8-1.8
		c0-1,0.8-1.8,1.8-1.8C46.4,45.4,47.2,46.2,47.2,47.2z M25.3,45.4c1,0,1.8,0.8,1.8,1.8c0,1-0.8,1.8-1.8,1.8c-1,0-1.8-0.8-1.8-1.8
		C23.5,46.2,24.3,45.4,25.3,45.4z M19.9,60.9h-7.3v-3.6c0-2,1.6-3.6,3.6-3.6s3.6,1.6,3.6,3.6V60.9z M14.4,49.9c0-1,0.8-1.8,1.8-1.8
		c1,0,1.8,0.8,1.8,1.8c0,1-0.8,1.8-1.8,1.8C15.2,51.8,14.4,50.9,14.4,49.9z M20,53.3c-0.3-0.3-0.7-0.6-1.1-0.8
		c1.4-1.5,1.3-3.8-0.1-5.2c-1.5-1.4-3.8-1.3-5.2,0.1c-1.3,1.4-1.3,3.6,0,5c-0.9,0.5-1.6,1.2-2.1,2.1H9.9v-31h12.8v21.3
		c-1.3,1.4-1.2,3.5,0.1,4.9C21.3,50.5,20.4,51.8,20,53.3z M29,60.9h-7.3v-6.4c0-2,1.6-3.6,3.6-3.6s3.6,1.6,3.6,3.6V60.9z M39.9,60.9
		h-9.1v-6.4c0-2.5,2-4.6,4.6-4.6s4.6,2,4.6,4.6V60.9z M32.6,45.4c0-1.5,1.2-2.7,2.7-2.7c1.5,0,2.7,1.2,2.7,2.7s-1.2,2.7-2.7,2.7
		C33.9,48.1,32.6,46.9,32.6,45.4z M40.9,51.4c-0.6-1.1-1.5-2-2.6-2.5c1.9-1.6,2.2-4.5,0.5-6.4c-1.6-1.9-4.5-2.2-6.4-0.5
		c-1.9,1.6-2.2,4.5-0.5,6.4c0.2,0.2,0.4,0.4,0.5,0.5c-1.1,0.6-2,1.4-2.6,2.5c-0.5-0.7-1.1-1.2-1.8-1.7c1.4-1.4,1.4-3.7-0.1-5.1
		c-0.9-0.9-2.2-1.2-3.5-0.9V9.9h21.9v33.8c-0.3-0.1-0.6-0.1-0.9-0.1c-2,0-3.6,1.6-3.6,3.6c0,0.9,0.4,1.8,1,2.5
		C42,50.1,41.4,50.7,40.9,51.4z M49,57.2v3.6h-7.3v-6.4c0-2,1.6-3.6,3.6-3.6s3.6,1.6,3.6,3.6V57.2z M58.1,60.9h-7.3v-3.6
		c0-2,1.6-3.6,3.6-3.6s3.6,1.6,3.6,3.6V60.9z M52.7,49.9c0-1,0.8-1.8,1.8-1.8c1,0,1.8,0.8,1.8,1.8c0,1-0.8,1.8-1.8,1.8
		C53.5,51.8,52.7,50.9,52.7,49.9z M60.9,54.5h-1.7c-0.5-0.9-1.2-1.6-2.1-2.1c1.4-1.5,1.3-3.8-0.1-5.2c-1.5-1.4-3.8-1.3-5.2,0.1
		c-1.3,1.4-1.3,3.6,0,5c-0.4,0.2-0.8,0.5-1.1,0.8c-0.3-1.5-1.3-2.8-2.7-3.6c1.3-1.4,1.3-3.5,0.1-4.9V23.5h12.8L60.9,54.5L60.9,54.5z
		"/>
	<rect x="50.8" y="29" class="st0" width="1.8" height="14.6"/>
	<rect x="56.3" y="29" class="st0" width="1.8" height="14.6"/>
	<rect x="12.6" y="29" class="st0" width="1.8" height="14.6"/>
	<rect x="18.1" y="29" class="st0" width="1.8" height="14.6"/>
	<path class="st0" d="M40.8,11.7C40.8,11.7,40.8,11.7,40.8,11.7H29.9c-0.5,0-0.9,0.4-0.9,0.9c0,0,0,0,0,0v7.3c0,0.5,0.4,0.9,0.9,0.9
		c0,0,0,0,0,0h10.9c0.5,0,0.9-0.4,0.9-0.9c0,0,0,0,0,0v-7.3C41.7,12.1,41.3,11.7,40.8,11.7z M39.9,19h-9.1v-5.5h9.1V19z"/>
</g>
</svg>
