<svg xmlns="http://www.w3.org/2000/svg" width="57.373" height="51.637" viewBox="0 0 57.373 51.637">
  <g id="Group_538" data-name="Group 538" transform="translate(-1652.228 -2685.206)">
    <g id="Group_537" data-name="Group 537">
      <g id="Group_536" data-name="Group 536">
        <g id="Path_268" data-name="Path 268" fill="#ccc" stroke-miterlimit="10">
          <path d="M 1700.994995117188 2736.343017578125 C 1700.36328125 2736.343017578125 1699.76806640625 2736.09619140625 1699.319213867188 2735.648193359375 C 1698.396240234375 2734.725341796875 1698.396362304688 2733.222412109375 1699.319580078125 2732.298583984375 L 1700.160400390625 2731.458740234375 L 1701.01513671875 2730.60498046875 L 1699.807006835938 2730.60498046875 L 1680.421020507813 2730.60498046875 L 1680.06787109375 2730.60498046875 L 1679.949829101563 2730.93798828125 C 1678.8037109375 2734.170166015625 1675.732666015625 2736.342041015625 1672.307983398438 2736.342041015625 C 1668.884033203125 2736.342041015625 1665.8134765625 2734.170166015625 1664.667358398438 2730.93798828125 L 1664.54931640625 2730.60498046875 L 1664.196044921875 2730.60498046875 L 1663.702026367188 2730.60498046875 C 1657.651000976563 2730.60498046875 1652.72802734375 2725.681640625 1652.72802734375 2719.6298828125 C 1652.72802734375 2713.578857421875 1657.651000976563 2708.656005859375 1663.702026367188 2708.656005859375 L 1681.407958984375 2708.656005859375 L 1681.761108398438 2708.656005859375 L 1681.879150390625 2708.322998046875 C 1683.025634765625 2705.090087890625 1686.096313476563 2702.91796875 1689.52001953125 2702.91796875 C 1692.9443359375 2702.91796875 1696.015380859375 2705.090087890625 1697.161865234375 2708.322998046875 L 1697.279907226563 2708.656005859375 L 1697.633056640625 2708.656005859375 L 1698.1259765625 2708.656005859375 C 1701.565673828125 2708.656005859375 1704.364013671875 2705.857666015625 1704.364013671875 2702.41796875 C 1704.364013671875 2698.978759765625 1701.565673828125 2696.180908203125 1698.1259765625 2696.180908203125 L 1668.946044921875 2696.180908203125 L 1668.592895507813 2696.180908203125 L 1668.474853515625 2696.513916015625 C 1667.328491210938 2699.74609375 1664.257934570313 2701.91796875 1660.833984375 2701.91796875 C 1656.364379882813 2701.91796875 1652.72802734375 2698.28173828125 1652.72802734375 2693.81201171875 C 1652.72802734375 2689.34228515625 1656.364379882813 2685.7060546875 1660.833984375 2685.7060546875 C 1664.257690429688 2685.7060546875 1667.328369140625 2687.878173828125 1668.474853515625 2691.111083984375 L 1668.592895507813 2691.444091796875 L 1668.946044921875 2691.444091796875 L 1698.1259765625 2691.444091796875 C 1704.177612304688 2691.444091796875 1709.100952148438 2696.366943359375 1709.100952148438 2702.41796875 C 1709.100952148438 2708.4697265625 1704.177612304688 2713.39306640625 1698.1259765625 2713.39306640625 L 1697.633056640625 2713.39306640625 L 1697.279907226563 2713.39306640625 L 1697.161865234375 2713.725830078125 C 1696.015502929688 2716.958251953125 1692.944580078125 2719.1298828125 1689.52001953125 2719.1298828125 C 1686.096069335938 2719.1298828125 1683.025512695313 2716.958251953125 1681.879150390625 2713.725830078125 L 1681.761108398438 2713.39306640625 L 1681.407958984375 2713.39306640625 L 1663.702026367188 2713.39306640625 C 1660.262939453125 2713.39306640625 1657.464965820313 2716.19091796875 1657.464965820313 2719.6298828125 C 1657.464965820313 2723.069580078125 1660.262939453125 2725.867919921875 1663.702026367188 2725.867919921875 L 1664.196044921875 2725.867919921875 L 1664.54931640625 2725.867919921875 L 1664.667358398438 2725.534912109375 C 1665.813720703125 2722.302001953125 1668.88427734375 2720.1298828125 1672.307983398438 2720.1298828125 C 1675.732299804688 2720.1298828125 1678.803344726563 2722.302001953125 1679.949829101563 2725.534912109375 L 1680.06787109375 2725.867919921875 L 1680.421020507813 2725.867919921875 L 1699.807006835938 2725.867919921875 L 1701.014404296875 2725.867919921875 L 1700.160522460938 2725.014404296875 L 1699.319458007813 2724.173583984375 C 1698.396240234375 2723.250244140625 1698.396240234375 2721.747802734375 1699.319458007813 2720.824462890625 C 1699.767211914063 2720.376953125 1700.362182617188 2720.13037109375 1700.994873046875 2720.13037109375 C 1701.627319335938 2720.13037109375 1702.222045898438 2720.376708984375 1702.669311523438 2720.824462890625 L 1708.406494140625 2726.560546875 C 1708.852172851563 2727.00634765625 1709.097778320313 2727.601318359375 1709.097778320313 2728.236083984375 C 1709.097778320313 2728.87060546875 1708.852172851563 2729.465576171875 1708.406494140625 2729.911376953125 L 1702.66943359375 2735.6484375 C 1702.22216796875 2736.096435546875 1701.627685546875 2736.343017578125 1700.994995117188 2736.343017578125 Z M 1672.307983398438 2724.867919921875 C 1670.450805664063 2724.867919921875 1668.93994140625 2726.37890625 1668.93994140625 2728.236083984375 C 1668.93994140625 2730.09375 1670.450805664063 2731.60498046875 1672.307983398438 2731.60498046875 C 1674.165649414063 2731.60498046875 1675.677001953125 2730.09375 1675.677001953125 2728.236083984375 C 1675.677001953125 2726.37890625 1674.165649414063 2724.867919921875 1672.307983398438 2724.867919921875 Z M 1689.52001953125 2707.656005859375 C 1687.662841796875 2707.656005859375 1686.151977539063 2709.166748046875 1686.151977539063 2711.02392578125 C 1686.151977539063 2712.881591796875 1687.662841796875 2714.39306640625 1689.52001953125 2714.39306640625 C 1691.377685546875 2714.39306640625 1692.889038085938 2712.881591796875 1692.889038085938 2711.02392578125 C 1692.889038085938 2709.166748046875 1691.377685546875 2707.656005859375 1689.52001953125 2707.656005859375 Z M 1660.833984375 2690.444091796875 C 1658.976318359375 2690.444091796875 1657.464965820313 2691.954833984375 1657.464965820313 2693.81201171875 C 1657.464965820313 2695.669677734375 1658.976318359375 2697.180908203125 1660.833984375 2697.180908203125 C 1662.691162109375 2697.180908203125 1664.202026367188 2695.669677734375 1664.202026367188 2693.81201171875 C 1664.202026367188 2691.954833984375 1662.691162109375 2690.444091796875 1660.833984375 2690.444091796875 Z" stroke="none"/>
          <path d="M 1700.994995117188 2735.843017578125 C 1701.494018554688 2735.843017578125 1701.962768554688 2735.648681640625 1702.315795898438 2735.294921875 L 1708.052856445313 2729.557861328125 C 1708.404174804688 2729.20654296875 1708.597778320313 2728.737060546875 1708.597778320313 2728.236083984375 C 1708.597778320313 2727.73486328125 1708.404174804688 2727.265380859375 1708.052978515625 2726.914306640625 L 1702.315551757813 2721.177734375 C 1701.962768554688 2720.82470703125 1701.493774414063 2720.63037109375 1700.994873046875 2720.63037109375 C 1700.495727539063 2720.63037109375 1700.0263671875 2720.824951171875 1699.673095703125 2721.177978515625 C 1698.944702148438 2721.906494140625 1698.944702148438 2723.091552734375 1699.672973632813 2723.81982421875 L 1700.514038085938 2724.66064453125 L 1702.2216796875 2726.367919921875 L 1699.807006835938 2726.367919921875 L 1680.421020507813 2726.367919921875 L 1679.714599609375 2726.367919921875 L 1679.478515625 2725.7021484375 C 1678.402709960938 2722.668212890625 1675.521118164063 2720.6298828125 1672.307983398438 2720.6298828125 C 1669.095581054688 2720.6298828125 1666.21435546875 2722.668212890625 1665.138549804688 2725.7021484375 L 1664.902465820313 2726.367919921875 L 1664.196044921875 2726.367919921875 L 1663.702026367188 2726.367919921875 C 1659.987182617188 2726.367919921875 1656.964965820313 2723.34521484375 1656.964965820313 2719.6298828125 C 1656.964965820313 2715.915283203125 1659.987182617188 2712.89306640625 1663.702026367188 2712.89306640625 L 1681.407958984375 2712.89306640625 L 1682.114379882813 2712.89306640625 L 1682.350463867188 2713.558837890625 C 1683.426147460938 2716.592041015625 1686.307373046875 2718.6298828125 1689.52001953125 2718.6298828125 C 1692.733276367188 2718.6298828125 1695.614868164063 2716.592041015625 1696.690551757813 2713.558837890625 L 1696.926635742188 2712.89306640625 L 1697.633056640625 2712.89306640625 L 1698.1259765625 2712.89306640625 C 1703.90185546875 2712.89306640625 1708.600952148438 2708.19384765625 1708.600952148438 2702.41796875 C 1708.600952148438 2696.642578125 1703.90185546875 2691.944091796875 1698.1259765625 2691.944091796875 L 1668.946044921875 2691.944091796875 L 1668.239624023438 2691.944091796875 L 1668.003540039063 2691.2783203125 C 1666.927734375 2688.244384765625 1664.046508789063 2686.2060546875 1660.833984375 2686.2060546875 C 1656.640014648438 2686.2060546875 1653.22802734375 2689.6181640625 1653.22802734375 2693.81201171875 C 1653.22802734375 2698.005859375 1656.640014648438 2701.41796875 1660.833984375 2701.41796875 C 1664.046630859375 2701.41796875 1666.927856445313 2699.3798828125 1668.003540039063 2696.3466796875 L 1668.239624023438 2695.680908203125 L 1668.946044921875 2695.680908203125 L 1698.1259765625 2695.680908203125 C 1701.84130859375 2695.680908203125 1704.864013671875 2698.703125 1704.864013671875 2702.41796875 C 1704.864013671875 2706.13330078125 1701.84130859375 2709.156005859375 1698.1259765625 2709.156005859375 L 1697.633056640625 2709.156005859375 L 1696.926635742188 2709.156005859375 L 1696.690551757813 2708.490234375 C 1695.61474609375 2705.456298828125 1692.733154296875 2703.41796875 1689.52001953125 2703.41796875 C 1686.307495117188 2703.41796875 1683.42626953125 2705.456298828125 1682.350463867188 2708.490234375 L 1682.114379882813 2709.156005859375 L 1681.407958984375 2709.156005859375 L 1663.702026367188 2709.156005859375 C 1657.926635742188 2709.156005859375 1653.22802734375 2713.8544921875 1653.22802734375 2719.6298828125 C 1653.22802734375 2725.40576171875 1657.926635742188 2730.10498046875 1663.702026367188 2730.10498046875 L 1664.196044921875 2730.10498046875 L 1664.902465820313 2730.10498046875 L 1665.138549804688 2730.770751953125 C 1666.214111328125 2733.803955078125 1669.09521484375 2735.842041015625 1672.307983398438 2735.842041015625 C 1675.521362304688 2735.842041015625 1678.402954101563 2733.803955078125 1679.478515625 2730.770751953125 L 1679.714599609375 2730.10498046875 L 1680.421020507813 2730.10498046875 L 1699.807006835938 2730.10498046875 L 1702.223266601563 2730.10498046875 L 1700.513671875 2731.8125 L 1699.67333984375 2732.65185546875 C 1698.94482421875 2733.380859375 1698.944702148438 2734.566650390625 1699.672485351563 2735.294189453125 C 1700.026977539063 2735.648193359375 1700.49658203125 2735.843017578125 1700.994995117188 2735.843017578125 M 1672.307983398438 2724.367919921875 C 1674.44140625 2724.367919921875 1676.177001953125 2726.103271484375 1676.177001953125 2728.236083984375 C 1676.177001953125 2730.369384765625 1674.44140625 2732.10498046875 1672.307983398438 2732.10498046875 C 1670.175170898438 2732.10498046875 1668.43994140625 2730.369384765625 1668.43994140625 2728.236083984375 C 1668.43994140625 2726.103271484375 1670.175170898438 2724.367919921875 1672.307983398438 2724.367919921875 M 1689.52001953125 2707.156005859375 C 1691.653442382813 2707.156005859375 1693.389038085938 2708.89111328125 1693.389038085938 2711.02392578125 C 1693.389038085938 2713.157470703125 1691.653442382813 2714.89306640625 1689.52001953125 2714.89306640625 C 1687.38720703125 2714.89306640625 1685.651977539063 2713.157470703125 1685.651977539063 2711.02392578125 C 1685.651977539063 2708.89111328125 1687.38720703125 2707.156005859375 1689.52001953125 2707.156005859375 M 1660.833984375 2689.944091796875 C 1662.966796875 2689.944091796875 1664.702026367188 2691.67919921875 1664.702026367188 2693.81201171875 C 1664.702026367188 2695.9453125 1662.966796875 2697.680908203125 1660.833984375 2697.680908203125 C 1658.700561523438 2697.680908203125 1656.964965820313 2695.9453125 1656.964965820313 2693.81201171875 C 1656.964965820313 2691.67919921875 1658.700561523438 2689.944091796875 1660.833984375 2689.944091796875 M 1700.994995117188 2736.843017578125 C 1700.260986328125 2736.843017578125 1699.526977539063 2736.56201171875 1698.965942382813 2736.001953125 C 1697.845947265625 2734.882080078125 1697.845947265625 2733.06591796875 1698.965942382813 2731.945068359375 L 1699.807006835938 2731.10498046875 L 1680.421020507813 2731.10498046875 C 1679.237060546875 2734.444091796875 1676.047973632813 2736.842041015625 1672.307983398438 2736.842041015625 C 1668.567993164063 2736.842041015625 1665.380004882813 2734.444091796875 1664.196044921875 2731.10498046875 L 1663.702026367188 2731.10498046875 C 1657.375 2731.10498046875 1652.22802734375 2725.9580078125 1652.22802734375 2719.6298828125 C 1652.22802734375 2713.302978515625 1657.375 2708.156005859375 1663.702026367188 2708.156005859375 L 1681.407958984375 2708.156005859375 C 1682.592041015625 2704.81689453125 1685.780029296875 2702.41796875 1689.52001953125 2702.41796875 C 1693.260009765625 2702.41796875 1696.448974609375 2704.81689453125 1697.633056640625 2708.156005859375 L 1698.1259765625 2708.156005859375 C 1701.2900390625 2708.156005859375 1703.864013671875 2705.58203125 1703.864013671875 2702.41796875 C 1703.864013671875 2699.2548828125 1701.2900390625 2696.680908203125 1698.1259765625 2696.680908203125 L 1668.946044921875 2696.680908203125 C 1667.761962890625 2700.02001953125 1664.572998046875 2702.41796875 1660.833984375 2702.41796875 C 1656.088012695313 2702.41796875 1652.22802734375 2698.55810546875 1652.22802734375 2693.81201171875 C 1652.22802734375 2689.06689453125 1656.088012695313 2685.2060546875 1660.833984375 2685.2060546875 C 1664.572998046875 2685.2060546875 1667.761962890625 2687.60498046875 1668.946044921875 2690.944091796875 L 1698.1259765625 2690.944091796875 C 1704.453002929688 2690.944091796875 1709.600952148438 2696.091064453125 1709.600952148438 2702.41796875 C 1709.600952148438 2708.74609375 1704.453002929688 2713.89306640625 1698.1259765625 2713.89306640625 L 1697.633056640625 2713.89306640625 C 1696.448974609375 2717.23193359375 1693.260009765625 2719.6298828125 1689.52001953125 2719.6298828125 C 1685.780029296875 2719.6298828125 1682.592041015625 2717.23193359375 1681.407958984375 2713.89306640625 L 1663.702026367188 2713.89306640625 C 1660.538940429688 2713.89306640625 1657.964965820313 2716.467041015625 1657.964965820313 2719.6298828125 C 1657.964965820313 2722.7939453125 1660.538940429688 2725.367919921875 1663.702026367188 2725.367919921875 L 1664.196044921875 2725.367919921875 C 1665.380004882813 2722.029052734375 1668.567993164063 2719.6298828125 1672.307983398438 2719.6298828125 C 1676.047973632813 2719.6298828125 1679.237060546875 2722.029052734375 1680.421020507813 2725.367919921875 L 1699.807006835938 2725.367919921875 L 1698.965942382813 2724.527099609375 C 1697.845947265625 2723.406982421875 1697.845947265625 2721.591064453125 1698.965942382813 2720.470947265625 C 1699.526489257813 2719.910400390625 1700.2607421875 2719.63037109375 1700.994873046875 2719.63037109375 C 1701.72900390625 2719.63037109375 1702.462890625 2719.910400390625 1703.02294921875 2720.470947265625 L 1708.760009765625 2726.20703125 C 1709.876953125 2727.323974609375 1709.876953125 2729.14794921875 1708.760009765625 2730.264892578125 L 1703.02294921875 2736.001953125 C 1702.463012695313 2736.56298828125 1701.72900390625 2736.843017578125 1700.994995117188 2736.843017578125 Z M 1672.307983398438 2725.367919921875 C 1670.725952148438 2725.367919921875 1669.43994140625 2726.655029296875 1669.43994140625 2728.236083984375 C 1669.43994140625 2729.818115234375 1670.725952148438 2731.10498046875 1672.307983398438 2731.10498046875 C 1673.890014648438 2731.10498046875 1675.177001953125 2729.818115234375 1675.177001953125 2728.236083984375 C 1675.177001953125 2726.655029296875 1673.890014648438 2725.367919921875 1672.307983398438 2725.367919921875 Z M 1689.52001953125 2708.156005859375 C 1687.93798828125 2708.156005859375 1686.651977539063 2709.443115234375 1686.651977539063 2711.02392578125 C 1686.651977539063 2712.60595703125 1687.93798828125 2713.89306640625 1689.52001953125 2713.89306640625 C 1691.10205078125 2713.89306640625 1692.389038085938 2712.60595703125 1692.389038085938 2711.02392578125 C 1692.389038085938 2709.443115234375 1691.10205078125 2708.156005859375 1689.52001953125 2708.156005859375 Z M 1660.833984375 2690.944091796875 C 1659.251953125 2690.944091796875 1657.964965820313 2692.23095703125 1657.964965820313 2693.81201171875 C 1657.964965820313 2695.39404296875 1659.251953125 2696.680908203125 1660.833984375 2696.680908203125 C 1662.4150390625 2696.680908203125 1663.702026367188 2695.39404296875 1663.702026367188 2693.81201171875 C 1663.702026367188 2692.23095703125 1662.4150390625 2690.944091796875 1660.833984375 2690.944091796875 Z" stroke="none" fill="#fff"/>
        </g>
      </g>
    </g>
  </g>
</svg>
