<?xml version="1.0" encoding="utf-8"?>
<!-- Generator: Adobe Illustrator 22.1.0, SVG Export Plug-In . SVG Version: 6.00 Build 0)  -->
<svg version="1.1" id="Layer_1" xmlns="http://www.w3.org/2000/svg" xmlns:xlink="http://www.w3.org/1999/xlink" x="0px" y="0px"
	 viewBox="0 0 70.7 70.7" style="enable-background:new 0 0 70.7 70.7;" xml:space="preserve">
<style type="text/css">
	.st0{fill:#CCCCCC;}
	.st1{fill:#29ABE2;}
</style>
<g>
	<path class="st0" d="M62.3,46.5c0-7.2-5.8-13-13-13c0,0,0,0,0,0c-0.6,0-1.2,0.1-1.9,0.1V12.2c0-0.5-0.4-0.9-0.9-0.9H35.4V9.4
		c0-1-0.8-1.9-1.9-1.9H22.4c-1,0-1.9,0.8-1.9,1.9v1.9H9.4c-0.5,0-0.9,0.4-0.9,0.9v50.1c0,0.5,0.4,0.9,0.9,0.9h37.1
		c0.5,0,0.9-0.4,0.9-0.9v-2.9c5.5,0.9,11-2,13.5-7C61.8,50.5,62.3,48.5,62.3,46.5L62.3,46.5z M59.5,42.1c0,0.1,0.1,0.1,0.1,0.2
		l-9.9,3.1l-4.9-9.1C50.5,33.8,57.1,36.4,59.5,42.1z M22.4,9.4h11.1V15H22.4V9.4z M45.6,61.3H10.3V13.1h10.2V15c0,1,0.8,1.9,1.9,1.9
		h11.1c1,0,1.9-0.8,1.9-1.9v-1.9h10.2v21c-0.8,0.2-1.6,0.6-2.4,1c-6.3,3.4-8.7,11.2-5.3,17.6c1.6,3.1,4.4,5.3,7.7,6.3V61.3z
		 M49.3,57.6L49.3,57.6c-6.1,0-11.1-5-11.1-11.1c0-3.8,1.9-7.3,5.1-9.3l5.2,9.8l0,0c0,0,0,0,0.1,0.1c0,0,0.1,0.1,0.1,0.1l0,0
		c0,0,0,0,0.1,0c0,0,0.1,0.1,0.1,0.1c0,0,0,0,0,0l9.9,5C56.8,55.6,53.2,57.6,49.3,57.6z M59.6,50.6l-7.9-3.9l1.3-0.4l7.1-2.2
		c0.2,0.8,0.3,1.6,0.3,2.4C60.4,47.9,60.1,49.3,59.6,50.6z"/>
	<path class="st0" d="M25.4,21.5c-2.5-3.2-7.2-3.8-10.4-1.3c-0.6,0.4-1.1,1-1.5,1.6l0.8,0.5l-0.8-0.5c-2.4,3.3-1.6,8,1.7,10.3
		c1.3,0.9,2.8,1.4,4.3,1.4c4.1,0,7.4-3.3,7.4-7.4C27,24.4,26.5,22.8,25.4,21.5z M20.5,20.6c1.1,0.2,2,0.7,2.8,1.4l-1.5,1.2
		c-0.4-0.3-0.8-0.5-1.3-0.7L20.5,20.6z M19.6,24.2c0.6,0,1.1,0.3,1.5,0.7c0.3,0.3,0.4,0.7,0.4,1.1c0,1-0.8,1.9-1.9,1.9
		s-1.9-0.8-1.9-1.9C17.7,25.1,18.6,24.2,19.6,24.2z M18.7,20.6v1.9c-0.5,0.1-1,0.4-1.4,0.7l-1.5-1.1C16.5,21.3,17.5,20.8,18.7,20.6z
		 M18.6,31.5C16,31.1,14,28.8,14,26.1c0-0.8,0.2-1.7,0.6-2.4l1.5,1.1c-0.2,0.4-0.3,0.9-0.3,1.3c0,2,1.7,3.7,3.7,3.7
		c1.7,0,3.2-1.1,3.6-2.8h1.9C24.5,30,21.7,32.1,18.6,31.5z M23.2,25.2c0-0.2-0.1-0.4-0.2-0.5l1.5-1.2c0.3,0.5,0.5,1.1,0.6,1.7H23.2z
		"/>
	<rect x="30.7" y="19.6" class="st0" width="12.1" height="1.9"/>
	<rect x="30.7" y="23.3" class="st0" width="12.1" height="1.9"/>
	<rect x="30.7" y="27" class="st0" width="12.1" height="1.9"/>
	<rect x="30.7" y="30.7" class="st0" width="6.5" height="1.9"/>
	<path class="st0" d="M15.9,53h-2.8c-0.5,0-0.9,0.4-0.9,0.9v4.6c0,0.5,0.4,0.9,0.9,0.9h2.8c0.5,0,0.9-0.4,0.9-0.9v-4.6
		C16.8,53.4,16.4,53,15.9,53z M15,57.6H14v-2.8H15V57.6z"/>
	<path class="st0" d="M21.4,49.3h-2.8c-0.5,0-0.9,0.4-0.9,0.9v8.3c0,0.5,0.4,0.9,0.9,0.9h2.8c0.5,0,0.9-0.4,0.9-0.9v-8.3
		C22.4,49.7,22,49.3,21.4,49.3z M20.5,57.6h-0.9v-6.5h0.9V57.6z"/>
	<path class="st0" d="M27,44.6h-2.8c-0.5,0-0.9,0.4-0.9,0.9v13c0,0.5,0.4,0.9,0.9,0.9H27c0.5,0,0.9-0.4,0.9-0.9v-13
		C27.9,45.1,27.5,44.6,27,44.6z M26.1,57.6h-0.9V46.5h0.9V57.6z"/>
	<path class="st0" d="M32.6,40h-2.8c-0.5,0-0.9,0.4-0.9,0.9v17.6c0,0.5,0.4,0.9,0.9,0.9h2.8c0.5,0,0.9-0.4,0.9-0.9V40.9
		C33.5,40.4,33.1,40,32.6,40z M31.7,57.6h-0.9V41.9h0.9V57.6z"/>
	<rect x="12.2" y="35.4" class="st0" width="7.4" height="1.9"/>
	<rect x="12.2" y="38.1" class="st0" width="7.4" height="1.9"/>
	<rect x="12.2" y="40.9" class="st0" width="3.7" height="1.9"/>
</g>
</svg>
