<?xml version="1.0" encoding="utf-8"?>
<!-- Generator: Adobe Illustrator 22.1.0, SVG Export Plug-In . SVG Version: 6.00 Build 0)  -->
<svg version="1.1" id="Layer_1" xmlns="http://www.w3.org/2000/svg" xmlns:xlink="http://www.w3.org/1999/xlink" x="0px" y="0px"
	 viewBox="0 0 70.7 70.7" style="enable-background:new 0 0 70.7 70.7;" xml:space="preserve">
<style type="text/css">
	.st0{fill:#CCCCCC;}
	.st1{fill:#29ABE2;}
</style>
<g>
	<path class="st0" d="M63.5,34.5c-0.5,0-0.8,0.4-0.8,0.8c0,7.3-2.8,14.1-8,19.3s-12,8-19.3,8s-14.1-2.8-19.3-8c-5.2-5.2-8-12-8-19.3
		c0-7.3,2.8-14.1,8-19.3s12-8,19.3-8c6.6,0,13,2.4,18,6.8c4.9,4.3,8.1,10.3,9,16.8c0.1,0.5,0.5,0.8,1,0.7c0.5-0.1,0.8-0.5,0.7-1
		c-0.9-6.9-4.4-13.2-9.6-17.8c-5.3-4.6-12.1-7.2-19.1-7.2c-7.7,0-15,3-20.5,8.5S6.4,27.6,6.4,35.4c0,7.7,3,15,8.5,20.5
		s12.8,8.5,20.5,8.5s15-3,20.5-8.5s8.5-12.8,8.5-20.5C64.4,34.9,64,34.5,63.5,34.5z"/>
	<path class="st0" d="M40.3,46.1c-2.3,1.4-4.8,2.4-7.4,2.7c-0.5,0.1-0.8,0.5-0.7,1c0.1,0.5,0.5,0.8,1,0.7c2.9-0.4,5.6-1.4,8.1-3
		c0.5-0.3,0.9-0.9,1.1-1.5c0.2,0,0.4,0,0.5,0c0.3,0,0.5,0,0.8,0c3,0,5.9-0.8,8.5-2.4c0.6-0.4,1-1.1,1-1.8c0-2.5-1-4.9-2.8-6.7
		c-1-1-2.1-1.7-3.4-2.2c1.3-1,2.2-2.6,2.2-4.4c0-3-2.5-5.5-5.5-5.5s-5.5,2.5-5.5,5.5c0,1.8,0.9,3.4,2.2,4.4
		c-1.2,0.5-2.4,1.2-3.3,2.1c-1-0.7-2.1-1.2-3.2-1.6c2-1.3,3.2-3.4,3.2-5.9c0-3.9-3.2-7-7-7c-3.9,0-7,3.2-7,7c0,2.5,1.3,4.7,3.3,5.9
		c-5,1.6-8.6,6.3-8.6,11.8c0,0.9,0.5,1.7,1.2,2.2c3,1.9,6.4,3,9.9,3.2c0,0,0,0,0,0c0.4,0,0.8-0.3,0.8-0.8c0-0.5-0.3-0.9-0.8-0.9
		c-3.2-0.2-6.4-1.2-9.1-2.9c-0.3-0.2-0.4-0.5-0.4-0.8c0-5.9,4.8-10.7,10.7-10.7c2.8,0,5.5,1.1,7.5,3.1c2,2,3.1,4.7,3.1,7.5
		C40.7,45.7,40.5,46,40.3,46.1C38,47.6,40.5,46,40.3,46.1z M24.7,27.7c0-2.9,2.4-5.3,5.3-5.3c2.9,0,5.3,2.4,5.3,5.3S33,33,30,33
		C27.1,33,24.7,30.6,24.7,27.7z M43.6,24.9c2.1,0,3.8,1.7,3.8,3.8c0,2.1-1.7,3.8-3.8,3.8c0,0,0,0,0,0c0,0,0,0,0,0
		c-2.1,0-3.8-1.7-3.8-3.8C39.8,26.6,41.5,24.9,43.6,24.9z M42.7,34.2c0.3,0,0.6-0.1,0.9-0.1c2.1,0,4,0.8,5.5,2.3
		c1.5,1.5,2.3,3.4,2.3,5.5c0,0.2-0.1,0.3-0.2,0.4c-2.3,1.4-4.9,2.2-7.6,2.2c-0.2,0-0.5,0-0.7,0c-0.2,0-0.4,0-0.5,0
		c-0.2-2.9-1.5-5.7-3.6-7.8c-0.1-0.1-0.3-0.3-0.4-0.4C39.5,35.1,41.1,34.4,42.7,34.2z"/>
</g>
</svg>
